<?xml version="1.0" encoding="UTF-8" standalone="no"?>
<svg xmlns:xlink="http://www.w3.org/1999/xlink" height="177.9px" width="550.0px" xmlns="http://www.w3.org/2000/svg">
  <g transform="matrix(1.0, 0.0, 0.0, 1.0, 0.0, -1.3)">
    <path d="M550.0 110.15 L549.85 110.35 549.8 110.35 549.6 110.5 545.6 113.65 Q541.35 117.5 538.4 122.6 536.25 126.3 535.75 131.85 L535.75 132.75 535.65 132.75 535.65 133.5 535.65 133.6 535.65 135.0 535.65 135.15 535.65 136.0 535.65 136.05 535.75 136.05 535.75 136.9 535.75 137.05 535.75 137.2 535.9 137.2 535.9 137.95 535.9 138.1 Q536.35 141.85 537.7 144.75 540.7 151.2 545.6 155.8 L548.1 157.9 545.6 157.95 524.65 158.0 524.65 157.9 518.15 148.15 518.15 148.05 518.15 147.95 519.3 147.95 Q525.5 147.7 531.95 147.7 L531.95 147.6 Q526.95 142.9 524.8 135.35 L524.75 135.25 Q517.55 138.35 515.9 147.1 514.1 157.0 505.25 159.95 503.55 160.55 501.3 160.6 L495.55 148.15 495.45 148.05 Q495.65 147.65 496.55 147.85 L496.7 147.85 497.5 147.85 Q501.0 147.1 502.55 144.55 507.1 137.2 513.25 131.6 503.3 129.75 499.75 121.6 499.45 121.05 499.5 120.35 L499.45 120.35 Q499.25 119.6 499.5 119.3 L499.5 119.15 Q501.25 109.85 510.65 108.25 L510.75 108.25 526.3 115.45 526.35 115.45 Q527.55 112.7 529.0 110.25 L529.0 110.2 545.6 110.15 549.6 110.15 550.0 110.15 M524.85 119.35 L518.2 116.45 518.15 116.4 Q513.25 117.15 512.1 121.65 L512.1 121.75 512.1 122.85 512.1 122.9 512.1 123.05 Q515.6 129.5 523.55 129.55 523.35 129.3 523.4 128.75 L523.5 128.65 523.5 128.5 523.5 127.2 523.4 127.1 Q523.35 126.55 523.55 126.25 L523.55 126.1 523.55 125.8 523.55 125.65 523.65 124.8 523.65 124.7 524.85 119.35 M448.35 157.7 L449.45 156.75 Q452.4 153.9 453.0 148.7 L453.0 148.5 453.0 148.35 453.0 147.2 453.2 147.2 453.2 147.05 453.2 145.95 453.2 145.75 453.2 120.35 453.1 120.35 449.45 116.8 448.65 115.85 449.45 115.05 457.8 107.05 457.9 106.9 466.9 113.95 466.95 114.1 Q467.2 128.3 467.0 143.05 L466.85 143.05 463.85 146.4 463.85 146.6 Q468.1 146.85 472.75 146.7 L472.95 146.7 475.75 142.85 475.85 142.7 475.85 142.5 475.85 142.15 475.85 141.85 475.85 109.65 475.85 109.55 489.4 109.55 489.6 109.55 Q489.85 125.35 489.75 141.55 L489.75 147.2 489.8 147.3 494.25 150.95 494.2 151.05 484.7 160.35 484.65 160.2 476.0 153.8 475.9 153.8 Q476.0 151.7 475.65 149.95 L475.65 150.05 471.3 157.9 471.15 157.9 Q460.1 158.0 449.45 157.75 L448.35 157.7 M396.05 116.45 L406.25 107.1 406.35 107.1 Q410.35 110.15 414.6 112.95 L414.65 113.1 414.9 117.7 414.85 117.95 415.0 117.95 415.0 117.8 Q419.45 111.85 425.15 107.1 L425.3 107.1 Q426.75 107.5 427.6 108.5 L427.75 108.55 Q435.9 108.3 443.35 108.8 L444.4 108.8 444.4 108.9 444.35 109.0 Q440.3 114.3 438.4 121.65 L438.4 123.6 438.4 123.75 438.4 147.5 438.4 147.7 438.45 147.75 Q441.1 149.6 443.6 151.6 L443.45 151.6 Q438.9 156.65 433.85 161.25 L433.7 161.25 424.85 154.65 424.7 154.65 424.65 124.55 424.85 124.55 424.85 124.4 428.6 120.75 Q428.6 120.65 428.75 120.65 L428.75 120.6 428.0 120.6 419.0 120.5 418.95 120.65 414.75 125.1 414.75 125.2 414.75 156.9 414.75 157.05 414.75 157.2 Q407.75 157.4 401.05 157.05 L400.95 157.05 400.9 155.8 400.9 155.6 400.9 154.5 400.9 154.35 400.9 153.05 400.9 152.85 400.9 151.7 400.9 151.6 400.9 150.45 400.9 150.3 400.9 148.95 400.9 148.85 400.9 147.7 400.9 147.5 400.9 146.4 400.9 146.25 400.9 144.95 400.9 144.8 400.9 143.65 400.9 143.5 400.9 142.15 400.9 142.05 400.9 140.9 400.9 140.75 400.9 139.6 400.9 139.4 400.9 138.2 400.9 137.95 400.9 136.85 400.9 136.7 400.9 135.55 401.05 135.55 401.05 135.4 401.05 134.1 401.05 133.95 401.05 132.85 401.05 132.65 401.05 131.4 401.05 131.2 401.05 130.05 401.05 129.9 401.05 128.75 401.05 128.65 401.05 127.3 401.05 127.2 401.05 126.0 401.05 125.85 401.05 124.55 401.05 124.4 401.05 123.3 401.05 123.1 401.05 122.0 401.05 121.85 401.05 119.9 401.05 119.8 Q398.4 118.25 396.05 116.45 M353.0 131.4 L353.15 131.4 353.15 131.2 353.15 130.4 Q356.6 117.8 363.45 108.65 364.25 107.5 365.15 106.65 365.4 106.4 365.95 106.3 L370.95 108.5 371.1 108.55 372.2 108.55 372.4 108.55 373.55 108.55 373.7 108.55 374.85 108.55 374.95 108.55 376.1 108.55 376.3 108.55 377.4 108.55 377.6 108.55 378.75 108.55 378.85 108.55 380.0 108.55 380.15 108.55 381.3 108.55 381.5 108.55 382.75 108.65 382.75 108.7 Q391.6 115.95 394.25 129.4 L394.35 132.0 Q394.7 132.4 394.6 133.15 L394.6 133.3 394.6 133.45 Q394.7 134.25 394.35 134.6 L394.35 134.75 394.35 134.95 394.35 135.1 Q394.5 135.85 394.25 136.2 393.9 139.75 392.5 142.3 386.7 152.5 378.2 160.15 371.6 158.7 366.35 155.85 355.9 150.2 353.3 136.7 L353.25 136.7 353.15 135.4 353.15 135.25 353.15 135.1 353.05 135.1 353.0 133.75 353.0 133.6 353.0 131.4 M362.4 121.85 L362.4 122.75 362.4 122.95 362.4 125.65 362.4 125.85 362.4 126.95 362.4 127.2 Q365.65 140.0 378.05 143.7 381.4 144.7 383.55 143.3 L383.7 142.7 383.7 142.5 383.7 141.4 383.7 141.2 383.7 139.15 383.7 138.95 Q382.0 126.95 374.65 120.65 L374.5 120.65 362.7 120.65 362.7 120.85 362.4 121.85 M302.85 121.85 L302.85 121.65 Q307.35 113.9 312.95 107.1 L313.05 107.1 313.05 106.9 314.5 107.05 314.5 107.1 Q315.95 107.7 316.9 108.9 L316.95 109.0 318.4 109.0 318.5 109.0 319.65 109.0 319.85 109.0 321.15 109.0 321.25 109.0 322.4 109.0 322.6 109.0 323.85 109.0 324.05 109.0 325.3 109.0 325.5 109.0 326.6 109.0 326.8 109.0 328.05 109.0 328.25 109.0 329.4 109.0 329.5 109.0 330.8 109.0 330.95 109.0 332.25 109.0 332.5 109.0 333.6 109.0 333.75 109.0 335.05 109.0 335.15 109.0 336.35 109.0 336.45 109.0 337.8 109.0 337.95 109.0 339.05 109.0 339.25 109.0 340.55 109.0 340.7 109.0 342.0 109.0 342.15 109.0 343.25 109.0 343.45 109.0 344.7 109.0 344.9 109.0 346.0 109.0 346.2 109.0 347.45 109.0 347.65 109.0 348.8 109.0 348.95 109.0 350.25 109.0 350.35 109.0 351.7 109.0 351.9 109.0 353.0 109.0 353.15 109.0 354.45 109.0 354.55 109.0 355.75 109.0 355.9 109.0 357.35 109.15 357.35 109.25 357.6 109.25 Q354.0 115.55 349.25 121.85 L349.25 122.0 349.25 122.05 346.85 122.1 346.85 122.05 335.05 122.1 335.05 122.3 Q335.15 139.55 334.85 156.25 L334.7 156.25 332.5 156.65 Q326.6 158.05 319.15 161.4 L319.15 129.8 319.3 129.8 Q324.5 127.25 327.75 122.3 L327.75 122.1 327.6 122.1 Q320.15 122.3 313.05 122.1 L309.65 122.05 302.85 121.85 M187.65 137.9 L187.85 137.9 187.85 137.8 187.85 136.8 Q189.8 129.3 193.7 123.7 L195.6 96.8 Q194.4 97.45 181.15 100.2 L180.2 94.3 164.8 98.15 164.75 98.0 153.05 100.85 Q169.05 86.4 183.7 70.7 L183.8 70.35 Q187.35 76.0 189.7 83.0 189.7 83.1 189.95 83.1 197.5 76.0 205.4 69.25 L205.55 68.9 Q216.65 89.9 229.3 109.5 L233.55 109.65 235.4 109.65 235.4 109.8 235.3 109.8 Q231.05 115.2 229.1 122.9 L229.1 124.45 229.1 124.7 229.1 125.8 229.1 125.95 229.1 148.1 229.1 148.3 229.1 148.35 234.1 151.85 234.05 152.0 224.9 162.4 224.75 162.3 Q220.05 158.95 215.15 155.75 L215.1 155.75 Q215.15 153.55 214.85 151.85 L214.85 152.0 205.15 161.85 Q203.25 160.8 201.2 159.85 190.2 154.65 187.85 141.0 L187.75 141.0 187.65 139.7 187.65 139.55 187.65 137.9 M182.5 77.05 L179.15 80.65 163.2 94.45 181.9 89.3 Q182.3 89.85 183.0 92.5 L183.8 95.2 199.15 91.35 199.25 109.55 Q199.15 109.55 199.0 115.25 L203.0 114.1 219.2 109.4 221.5 108.65 Q213.55 92.1 205.05 76.0 L204.7 76.1 Q196.45 82.95 187.6 89.25 L187.5 88.8 Q185.45 82.6 182.85 76.95 L182.5 77.05 M199.95 130.15 L199.95 130.8 199.95 131.0 199.95 133.1 199.95 133.25 199.95 134.35 199.95 134.55 Q201.85 144.8 212.6 146.35 L212.75 146.35 Q213.75 145.0 214.95 143.9 L215.0 143.75 215.0 143.55 215.0 126.9 215.15 126.9 215.15 126.8 218.85 122.35 218.9 122.25 218.7 122.25 203.5 122.25 203.5 122.35 Q201.15 125.65 199.95 130.15 M237.4 136.45 L237.6 136.45 237.6 136.35 237.6 135.0 237.6 134.85 237.6 133.7 237.6 133.55 237.6 132.25 237.6 132.1 237.6 131.45 237.6 131.4 261.3 111.6 265.45 108.0 265.55 108.0 274.5 114.6 274.6 114.6 274.9 118.5 274.85 118.7 274.95 118.7 274.95 118.5 Q279.5 112.75 285.15 108.0 L285.3 108.0 Q286.75 108.4 287.6 109.4 L287.7 109.5 304.4 109.55 304.4 109.6 304.3 109.75 Q300.3 115.05 298.35 122.6 L298.35 124.45 298.35 124.7 298.35 148.45 298.35 148.6 298.45 148.7 Q301.15 150.45 303.4 152.65 L303.25 152.7 293.85 162.4 293.85 162.25 284.65 155.4 284.55 155.4 284.5 125.65 284.65 125.65 284.65 125.45 288.6 121.65 288.7 121.6 288.7 121.5 288.0 121.5 278.95 121.45 278.85 121.45 274.75 125.95 274.75 126.1 274.75 127.25 274.75 127.45 274.75 128.55 274.75 128.7 274.75 129.8 274.75 130.0 274.75 131.15 274.75 131.3 274.75 132.45 274.75 132.6 274.75 133.7 274.75 133.9 274.75 135.0 274.75 135.2 274.75 136.35 274.75 136.45 274.75 137.8 274.75 137.9 274.75 139.1 274.75 139.2 274.75 140.55 274.75 140.65 274.75 141.8 274.75 142.0 274.75 143.1 274.75 143.25 274.75 144.4 274.75 144.55 274.75 145.85 274.75 146.0 274.75 147.3 274.75 147.45 274.75 148.6 274.75 148.75 274.75 150.2 274.75 150.4 274.75 151.55 274.75 151.65 274.75 152.8 274.75 152.95 274.75 155.4 274.75 155.55 274.75 155.75 Q274.9 157.05 274.6 158.0 L274.6 158.05 Q267.75 158.25 261.3 158.0 L261.0 158.0 Q260.75 156.4 260.75 154.4 L260.9 122.25 260.75 122.2 258.45 120.8 258.3 120.8 251.35 126.8 251.35 126.9 251.35 157.85 251.35 158.0 251.35 158.05 Q244.25 158.25 237.6 158.0 L237.5 158.0 237.4 156.65 237.4 156.5 237.4 155.4 237.4 155.2 237.4 153.95 237.4 153.75 237.4 152.65 237.4 152.5 237.4 151.3 237.4 151.2 237.4 149.9 237.4 149.75 237.4 148.6 237.4 148.45 237.4 147.3 237.4 147.1 237.4 145.85 237.4 145.65 237.4 144.55 237.4 144.4 237.4 143.1 237.4 142.95 237.4 141.8 237.4 141.65 237.4 140.55 237.4 140.35 237.4 139.1 237.4 138.9 237.4 137.8 237.4 137.6 237.4 136.45 M158.95 118.5 L158.95 118.35 Q163.55 112.6 169.2 107.85 L169.3 107.85 Q170.8 108.25 171.65 109.25 L171.7 109.25 188.45 109.35 188.45 109.4 188.35 109.55 Q184.3 114.85 182.45 122.35 L182.45 124.35 182.45 124.45 182.45 148.25 182.45 148.45 182.45 148.5 Q185.2 150.3 187.45 152.45 L187.3 152.5 177.9 162.2 177.85 162.05 168.7 155.2 168.55 155.2 168.5 125.45 168.7 125.45 168.7 125.25 172.55 121.45 172.7 121.4 172.7 121.35 172.05 121.35 163.05 121.25 Q162.9 121.25 162.9 121.35 L158.8 125.8 158.8 125.95 158.8 127.05 158.8 127.25 158.8 128.35 158.8 128.55 158.8 129.65 158.8 129.8 158.8 130.9 158.8 131.15 158.8 132.25 158.8 132.45 158.8 133.55 158.8 133.7 158.8 134.8 158.8 135.0 158.8 136.1 158.8 136.35 158.8 137.6 158.8 137.8 158.8 138.9 158.8 139.05 158.8 140.35 158.8 140.45 158.8 141.65 158.8 141.8 158.8 142.9 158.8 143.1 158.8 144.25 158.8 144.35 158.8 145.65 158.8 145.85 158.8 147.1 158.8 147.3 158.8 148.45 158.8 148.55 158.8 150.0 158.8 150.2 158.8 151.3 158.8 151.55 158.8 152.65 158.8 152.8 158.8 155.2 158.8 155.4 158.8 155.55 Q158.95 156.85 158.65 157.75 L158.65 157.9 Q151.65 158.1 145.1 157.75 144.75 156.2 144.8 154.2 L144.85 144.25 144.85 134.15 158.95 118.5 M4.7 25.6 L4.7 155.85 5.45 156.15 11.65 158.75 12.15 159.0 12.8 159.35 19.6 163.6 20.55 164.25 21.25 164.85 25.75 168.95 26.8 170.0 31.15 175.75 102.45 175.8 106.85 170.0 Q109.7 166.85 113.05 164.35 116.75 161.4 121.4 159.05 124.95 157.3 128.9 155.95 L128.85 25.5 Q125.4 24.45 121.4 22.35 116.6 19.9 113.05 17.15 109.6 14.4 106.9 11.35 103.95 8.0 102.65 5.25 L91.15 5.0 87.55 11.05 86.0 14.2 85.75 14.6 82.15 21.15 78.4 14.6 76.75 11.6 73.1 5.2 73.1 5.15 71.8 5.2 31.15 5.7 27.85 10.2 26.7 11.45 25.3 13.0 20.55 17.15 14.45 21.2 12.15 22.35 Q8.65 24.1 4.7 25.55 L4.7 25.6 M76.2 1.7 L82.65 15.2 89.15 1.5 105.75 1.55 Q113.05 17.15 133.2 22.3 L133.35 157.5 133.5 158.95 Q118.6 162.5 105.75 179.2 L26.8 179.2 Q20.15 164.2 0.0 158.8 L0.15 157.5 0.15 21.6 Q18.6 17.1 27.85 1.3 L76.2 1.7 M42.8 113.5 Q39.95 117.15 35.95 117.15 31.8 117.15 29.05 113.5 26.2 109.75 26.2 104.4 26.2 99.2 29.05 95.5 31.1 92.7 33.85 91.95 31.75 91.75 29.4 92.9 25.6 94.8 23.35 99.45 L22.8 100.55 Q20.15 106.05 21.1 111.9 21.6 115.45 23.35 118.4 L24.65 120.45 Q25.85 122.05 27.4 123.45 31.75 127.25 36.3 125.0 38.8 123.75 41.5 120.6 L41.5 120.45 41.95 120.0 Q44.8 116.45 49.3 107.5 L50.75 104.6 53.6 99.7 52.85 98.45 45.75 84.95 42.35 78.2 41.45 76.45 38.0 70.25 Q38.45 68.8 39.8 66.25 L42.6 61.0 Q46.9 52.95 51.35 47.7 L60.15 68.0 64.9 76.45 65.7 77.8 Q66.6 75.95 67.65 74.15 71.25 67.65 74.9 61.5 80.25 52.9 82.2 51.25 84.05 49.8 85.9 49.1 94.65 45.7 106.8 56.45 L110.9 60.6 Q115.2 65.65 116.95 71.65 L117.65 74.4 Q119.05 81.75 116.95 88.55 L115.85 91.65 Q113.85 96.2 110.95 99.15 109.0 101.25 106.55 102.5 102.05 104.8 97.95 103.1 L96.7 102.5 95.05 101.3 92.75 99.15 Q87.8 93.8 88.25 87.05 88.4 84.85 89.0 83.15 89.25 81.45 90.3 80.05 L90.5 79.8 Q92.35 77.45 94.9 77.45 97.3 77.45 99.25 79.8 100.95 82.15 101.05 85.4 100.95 88.8 99.25 91.0 97.4 93.4 94.9 93.4 92.3 93.4 90.5 91.0 L90.05 90.4 Q90.8 93.1 92.75 95.25 94.15 96.9 96.0 98.2 97.0 98.8 97.95 99.2 L98.2 99.35 Q101.45 100.4 104.85 98.85 108.65 96.9 110.95 92.3 111.15 91.7 111.45 91.25 114.05 85.65 113.05 79.8 112.6 76.3 110.95 73.3 L109.65 71.25 106.8 68.3 Q102.55 64.45 97.95 66.8 95.45 67.95 92.75 71.1 L92.65 71.25 92.35 71.75 Q89.5 75.3 84.85 84.25 L79.25 94.65 76.95 99.0 80.55 105.0 84.2 110.6 87.35 114.65 96.0 122.2 Q101.75 126.95 104.85 128.65 L103.8 130.0 Q93.35 145.6 84.25 143.5 79.8 142.45 74.95 136.5 72.2 133.1 69.3 128.0 L65.05 120.5 61.95 126.1 60.9 128.35 Q56.65 136.8 52.0 140.5 50.15 141.9 48.25 142.7 39.6 146.05 27.4 135.25 25.1 133.3 23.4 131.2 19.0 126.1 17.2 120.05 L16.55 117.3 Q15.1 110.0 17.2 103.15 L18.4 100.15 Q20.35 95.5 23.35 92.55 25.25 90.55 27.65 89.3 32.15 86.95 36.3 88.6 L37.55 89.2 39.2 90.3 41.5 92.55 Q46.4 97.95 45.95 104.65 45.7 108.3 44.4 110.85 L42.8 113.5 M74.1 93.65 L74.45 93.9 74.6 94.15 80.1 85.4 84.4 77.7 Q86.25 74.1 87.95 71.25 90.8 66.5 92.75 64.05 94.05 62.7 95.05 62.2 L92.6 61.35 Q90.05 60.8 88.65 61.65 L87.3 63.4 Q85.9 65.4 83.75 69.5 L82.8 71.25 76.2 83.5 72.25 90.25 74.1 93.65 M51.95 69.2 L54.95 74.6 55.9 76.45 58.45 81.15 60.7 85.05 66.7 95.85 72.4 106.9 77.45 115.65 Q80.9 121.3 83.0 124.2 84.45 126.3 85.2 126.8 86.7 127.55 89.1 126.25 L91.35 124.8 Q90.35 124.45 88.85 122.95 86.1 120.05 81.55 113.05 L80.0 110.7 74.85 101.95 62.85 80.3 61.55 77.9 60.9 76.45 58.85 72.6 57.35 69.35 55.25 63.75 53.6 66.0 Q51.95 68.3 51.95 69.2 M39.25 129.55 L41.55 130.35 Q44.15 131.0 45.5 130.0 L46.95 128.35 50.5 122.2 51.45 120.45 57.95 108.4 55.55 103.55 49.85 114.0 46.35 120.45 Q43.45 125.25 41.5 127.55 L39.25 129.55" fill="#000000" fill-rule="evenodd" stroke="none"/>
    <path d="M182.5 77.05 L182.85 76.95 Q185.45 82.6 187.5 88.8 L187.6 89.25 Q196.45 82.95 204.7 76.1 L205.05 76.0 Q213.55 92.1 221.5 108.65 L219.2 109.4 203.0 114.1 199.0 115.25 Q199.15 109.55 199.25 109.55 L199.15 91.35 183.8 95.2 183.0 92.5 Q182.3 89.85 181.9 89.3 L163.2 94.45 179.15 80.65 182.5 77.05" fill="#836a9c" fill-rule="evenodd" stroke="none"/>
    <path d="M78.4 14.6 L82.15 21.15 85.75 14.6 96.85 14.6 98.45 17.3 98.55 17.3 98.55 17.35 Q101.45 21.55 105.5 24.85 L105.45 24.85 Q109.5 28.2 115.1 30.8 L118.85 32.4 118.85 149.0 115.1 150.6 Q109.4 153.3 105.5 156.5 101.35 159.85 98.55 164.1 L96.75 166.85 36.85 166.85 35.1 164.1 Q32.15 159.85 28.1 156.5 24.1 153.3 18.55 150.6 L18.3 150.6 14.7 149.05 14.7 32.4 18.55 30.8 18.3 30.8 Q24.0 28.3 28.1 24.85 32.05 21.55 35.1 17.35 L36.85 14.6 78.4 14.6 M74.1 93.65 L72.25 90.25 76.2 83.5 82.8 71.25 83.75 69.5 Q85.9 65.4 87.3 63.4 L88.65 61.65 Q90.05 60.8 92.6 61.35 L95.05 62.2 Q94.05 62.7 92.75 64.05 90.8 66.5 87.95 71.25 86.25 74.1 84.4 77.7 L80.1 85.4 74.6 94.15 74.45 93.9 74.1 93.65 M42.8 113.5 L44.4 110.85 Q45.7 108.3 45.95 104.65 46.4 97.95 41.5 92.55 L39.2 90.3 37.55 89.2 36.3 88.6 Q32.15 86.95 27.65 89.3 25.25 90.55 23.35 92.55 20.35 95.5 18.4 100.15 L17.2 103.15 Q15.1 110.0 16.55 117.3 L17.2 120.05 Q19.0 126.1 23.4 131.2 25.1 133.3 27.4 135.25 39.6 146.05 48.25 142.7 50.15 141.9 52.0 140.5 56.65 136.8 60.9 128.35 L61.95 126.1 65.05 120.5 69.3 128.0 Q72.2 133.1 74.95 136.5 79.8 142.45 84.25 143.5 93.35 145.6 103.8 130.0 L104.85 128.65 Q101.75 126.95 96.0 122.2 L87.35 114.65 84.2 110.6 80.55 105.0 76.95 99.0 79.25 94.65 84.85 84.25 Q89.5 75.3 92.35 71.75 L92.65 71.25 92.75 71.1 Q95.45 67.95 97.95 66.8 102.55 64.45 106.8 68.3 L109.65 71.25 110.95 73.3 Q112.6 76.3 113.05 79.8 114.05 85.65 111.45 91.25 111.15 91.7 110.95 92.3 108.65 96.9 104.85 98.85 101.45 100.4 98.2 99.35 L97.95 99.2 Q97.0 98.8 96.0 98.2 94.15 96.9 92.75 95.25 90.8 93.1 90.05 90.4 L90.5 91.0 Q92.3 93.4 94.9 93.4 97.4 93.4 99.25 91.0 100.95 88.8 101.05 85.4 100.95 82.15 99.25 79.8 97.3 77.45 94.9 77.45 92.35 77.45 90.5 79.8 L90.3 80.05 Q89.25 81.45 89.0 83.15 88.4 84.85 88.25 87.05 87.8 93.8 92.75 99.15 L95.05 101.3 96.7 102.5 97.95 103.1 Q102.05 104.8 106.55 102.5 109.0 101.25 110.95 99.15 113.85 96.2 115.85 91.65 L116.95 88.55 Q119.05 81.75 117.65 74.4 L116.95 71.65 Q115.2 65.65 110.9 60.6 L106.8 56.45 Q94.65 45.7 85.9 49.1 84.05 49.8 82.2 51.25 80.25 52.9 74.9 61.5 71.25 67.65 67.65 74.15 66.6 75.95 65.7 77.8 L64.9 76.45 60.15 68.0 51.35 47.7 Q46.9 52.95 42.6 61.0 L39.8 66.25 Q38.45 68.8 38.0 70.25 L41.45 76.45 42.35 78.2 45.75 84.95 52.85 98.45 53.6 99.7 50.75 104.6 49.3 107.5 Q44.8 116.45 41.95 120.0 L41.5 120.45 41.5 120.6 Q38.8 123.75 36.3 125.0 31.75 127.25 27.4 123.45 25.85 122.05 24.65 120.45 L23.35 118.4 Q21.6 115.45 21.1 111.9 20.15 106.05 22.8 100.55 L23.35 99.45 Q25.6 94.8 29.4 92.9 31.75 91.75 33.85 91.95 31.1 92.7 29.05 95.5 26.2 99.2 26.2 104.4 26.2 109.75 29.05 113.5 31.8 117.15 35.95 117.15 39.95 117.15 42.8 113.5 M23.05 74.6 L23.85 46.7 22.75 34.65 22.25 34.25 21.9 34.65 20.75 49.85 22.2 74.6 22.65 75.05 Q23.05 75.05 23.05 74.6 M36.55 20.6 L35.45 34.8 36.55 49.0 37.0 49.4 Q37.4 49.4 37.4 49.0 L38.5 34.8 37.4 20.6 Q37.4 20.15 37.0 20.15 36.55 20.15 36.55 20.6 M51.95 69.2 Q51.95 68.3 53.6 66.0 L55.25 63.75 57.35 69.35 58.85 72.6 60.9 76.45 61.55 77.9 62.85 80.3 74.85 101.95 80.0 110.7 81.55 113.05 Q86.1 120.05 88.85 122.95 90.35 124.45 91.35 124.8 L89.1 126.25 Q86.7 127.55 85.2 126.8 84.45 126.3 83.0 124.2 80.9 121.3 77.45 115.65 L72.4 106.9 66.7 95.85 60.7 85.05 58.45 81.15 55.9 76.45 54.95 74.6 51.95 69.2 M39.25 129.55 L41.5 127.55 Q43.45 125.25 46.35 120.45 L49.85 114.0 55.55 103.55 57.95 108.4 51.45 120.45 50.5 122.2 46.95 128.35 45.5 130.0 Q44.15 131.0 41.55 130.35 L39.25 129.55 M112.7 118.55 L111.55 129.35 111.6 138.35 112.7 146.9 113.05 147.35 Q113.45 147.35 113.45 146.9 L114.65 132.7 113.45 118.55 Q113.45 118.1 113.05 118.1 L112.7 118.55 M38.1 145.6 L37.2 153.4 38.1 161.3 38.5 161.55 38.85 161.3 39.8 153.4 38.85 145.6 38.5 145.35 Q38.1 145.35 38.1 145.6 M18.55 131.45 L17.6 139.3 18.55 147.2 18.9 147.35 19.25 147.2 20.15 139.3 19.25 131.45 18.9 131.2 Q18.55 131.2 18.55 131.45" fill="#818e46" fill-rule="evenodd" stroke="none"/>
    <path d="M87.55 11.05 L98.45 11.6 100.95 15.65 Q103.6 19.45 107.4 22.55 111.2 25.8 116.4 28.05 118.9 29.25 120.75 29.85 L121.85 30.25 121.85 151.2 120.75 151.45 Q118.9 152.05 116.4 153.25 111.15 155.8 107.4 158.8 103.55 162.1 100.95 165.8 L100.95 165.75 98.55 169.8 35.0 169.8 34.6 168.9 32.75 165.75 32.75 165.8 Q30.05 162.05 26.2 158.8 22.6 155.85 17.2 153.25 L11.75 151.15 11.75 30.25 17.2 28.05 Q22.35 25.8 26.15 22.55 L26.2 22.55 Q29.95 19.55 32.75 15.65 L34.6 12.5 35.0 11.6 76.75 11.6 78.4 14.6 36.85 14.6 35.1 17.35 Q32.05 21.55 28.1 24.85 24.0 28.3 18.3 30.8 L18.55 30.8 14.7 32.4 14.7 149.05 18.3 150.6 18.55 150.6 Q24.1 153.3 28.1 156.5 32.15 159.85 35.1 164.1 L36.85 166.85 96.75 166.85 98.55 164.1 Q101.35 159.85 105.5 156.5 109.4 153.3 115.1 150.6 L118.85 149.0 118.85 32.4 115.1 30.8 Q109.5 28.2 105.45 24.85 L105.5 24.85 Q101.45 21.55 98.55 17.35 L98.55 17.3 98.45 17.3 96.85 14.6 85.75 14.6 86.0 14.2 87.55 11.05" fill="#424c17" fill-rule="evenodd" stroke="none"/>
    <path d="M87.55 11.05 L91.15 5.0 102.65 5.25 Q103.95 8.0 106.9 11.35 109.6 14.4 113.05 17.15 116.6 19.9 121.4 22.35 125.4 24.45 128.85 25.5 L128.9 155.95 Q124.95 157.3 121.4 159.05 116.75 161.4 113.05 164.35 109.7 166.85 106.85 170.0 L102.45 175.8 31.15 175.75 26.8 170.0 25.75 168.95 21.25 164.85 20.55 164.25 19.6 163.6 12.8 159.35 12.15 159.0 11.65 158.75 5.45 156.15 4.7 155.85 4.7 25.6 12.2 22.35 14.45 21.2 20.55 17.15 25.3 13.0 26.75 11.45 27.85 10.2 31.15 5.7 71.8 5.2 73.1 5.2 76.75 11.6 35.0 11.6 34.6 12.5 32.75 15.65 Q29.95 19.55 26.2 22.55 L26.15 22.55 Q22.35 25.8 17.2 28.05 L11.75 30.25 11.75 151.15 17.2 153.25 Q22.6 155.85 26.2 158.8 30.05 162.05 32.75 165.8 L32.75 165.75 34.6 168.9 35.0 169.8 98.55 169.8 100.95 165.75 100.95 165.8 Q103.55 162.1 107.4 158.8 111.15 155.8 116.4 153.25 118.9 152.05 120.75 151.45 L121.85 151.2 121.85 30.25 120.75 29.85 Q118.9 29.25 116.4 28.05 111.2 25.8 107.4 22.55 103.6 19.45 100.95 15.65 L98.45 11.6 87.55 11.05" fill="#866d9e" fill-rule="evenodd" stroke="none"/>
    <path d="M36.55 20.6 Q36.55 20.15 37.0 20.15 37.4 20.15 37.4 20.6 L38.5 34.8 37.4 49.0 Q37.4 49.4 37.0 49.4 L36.55 49.0 35.45 34.8 36.55 20.6 M23.05 74.6 Q23.05 75.05 22.65 75.05 L22.2 74.6 20.75 49.85 21.9 34.65 22.25 34.25 22.75 34.65 23.85 46.7 23.05 74.6 M18.55 131.45 Q18.55 131.2 18.9 131.2 L19.25 131.45 20.15 139.3 19.25 147.2 18.9 147.35 18.55 147.2 17.6 139.3 18.55 131.45 M38.1 145.6 Q38.1 145.35 38.5 145.35 L38.85 145.6 39.8 153.4 38.85 161.3 38.5 161.55 38.1 161.3 37.2 153.4 38.1 145.6 M112.7 118.55 L113.05 118.1 Q113.45 118.1 113.45 118.55 L114.65 132.7 113.45 146.9 Q113.45 147.35 113.05 147.35 L112.7 146.9 111.6 138.35 111.55 129.35 112.7 118.55" fill="#6f7b37" fill-rule="evenodd" stroke="none"/>
  </g>
</svg>
