<?xml version="1.0" encoding="UTF-8" standalone="no"?>
<svg xmlns:xlink="http://www.w3.org/1999/xlink" height="378.75px" width="1163.6px" xmlns="http://www.w3.org/2000/svg">
  <g transform="matrix(1.0, 0.0, 0.0, 1.0, 0.0, -8.55)">
    <path d="M1163.6 238.85 L1163.3 239.25 1163.15 239.25 Q1148.3 249.4 1139.1 265.15 1134.5 273.05 1133.5 284.75 L1133.4 286.7 1133.25 286.7 1133.25 288.25 1133.25 288.5 1133.25 291.45 1133.25 291.7 1133.25 293.55 1133.25 293.65 1133.5 293.65 1133.5 295.5 1133.5 295.75 1133.5 296.05 1133.8 296.05 1133.8 297.7 1133.8 298.0 Q1134.75 305.9 1137.55 312.05 1145.5 329.05 1159.55 339.9 1135.05 340.3 1110.0 340.05 L1110.0 339.9 1096.2 319.3 1096.2 319.0 1096.2 318.85 1098.6 318.85 Q1111.8 318.3 1125.45 318.3 L1125.45 318.05 Q1114.85 308.15 1110.25 292.15 L1110.15 292.0 Q1094.95 298.55 1091.5 317.05 1087.6 337.95 1068.95 344.2 1065.3 345.45 1060.6 345.6 L1048.35 319.3 1048.2 319.0 Q1048.6 318.15 1050.55 318.6 L1050.85 318.6 1052.5 318.6 Q1059.9 317.05 1063.2 311.65 1072.85 296.05 1085.9 284.2 1064.75 280.3 1057.25 263.05 1056.7 261.95 1056.8 260.4 L1056.7 260.4 Q1056.25 258.85 1056.8 258.2 L1056.8 257.9 Q1060.45 238.25 1080.35 234.8 L1080.6 234.8 1113.45 250.1 1113.6 250.1 Q1116.1 244.25 1119.2 239.1 L1119.2 238.95 1163.6 238.85 M1110.4 258.3 Q1103.3 255.4 1096.35 252.2 L1096.2 252.05 Q1085.9 253.7 1083.4 263.2 L1083.4 263.35 1083.4 265.7 1083.4 265.85 1083.4 266.1 Q1090.8 279.75 1107.65 279.9 1107.2 279.35 1107.35 278.2 L1107.5 277.95 1107.5 277.65 Q1107.35 276.25 1107.5 274.9 L1107.35 274.75 Q1107.2 273.5 1107.65 272.95 L1107.65 272.65 1107.65 271.95 1107.65 271.7 Q1107.5 270.45 1107.9 269.85 L1107.9 269.6 Q1109.0 263.75 1110.4 258.3 M948.5 339.45 L950.9 337.4 Q957.15 331.4 958.4 320.4 L958.4 320.0 958.4 319.7 958.4 317.2 958.8 317.2 958.8 316.9 958.8 314.55 958.8 314.15 958.8 260.4 958.55 260.4 Q954.5 256.8 950.9 252.9 L949.2 250.95 950.9 249.25 968.55 232.3 968.7 232.0 987.75 246.9 987.9 247.2 Q988.45 277.25 988.05 308.45 L987.65 308.45 Q984.7 312.35 981.35 315.55 L981.35 315.95 Q990.3 316.5 1000.15 316.2 L1000.6 316.2 Q1003.5 312.05 1006.55 308.0 L1006.7 307.75 1006.7 307.3 1006.7 306.6 1006.7 305.9 1006.7 237.85 1006.7 237.55 1035.4 237.55 1035.8 237.55 Q1036.35 271.0 1036.1 305.25 L1036.1 317.2 1036.2 317.5 Q1041.25 321.1 1045.7 325.15 L1045.55 325.4 1025.5 345.05 1025.35 344.75 Q1016.05 338.2 1007.0 331.25 L1006.85 331.25 Q1007.0 326.8 1006.3 323.05 L1006.3 323.3 997.1 339.9 996.8 339.9 Q973.45 340.05 950.9 339.6 L948.5 339.45 M746.8 283.8 L747.1 283.8 747.1 283.35 747.1 281.7 Q754.45 255.0 768.95 235.65 770.6 233.25 772.55 231.45 773.1 230.9 774.25 230.75 779.65 232.85 784.8 235.35 L785.1 235.5 787.45 235.5 787.9 235.5 790.25 235.5 790.65 235.5 793.05 235.5 793.3 235.5 795.65 235.5 796.1 235.5 798.45 235.5 798.85 235.5 801.25 235.5 801.5 235.5 803.9 235.5 804.3 235.5 806.65 235.5 807.1 235.5 809.75 235.65 809.75 235.75 Q828.5 251.1 834.1 279.6 834.5 282.1 834.35 285.05 835.05 285.9 834.8 287.55 L834.8 287.85 834.8 288.1 Q835.05 289.8 834.35 290.6 L834.35 290.9 834.35 291.3 834.35 291.6 Q834.65 293.25 834.1 293.95 833.4 301.45 830.35 306.9 818.1 328.45 800.15 344.6 786.2 341.55 775.05 335.55 752.95 323.6 747.5 295.05 L747.35 295.05 747.1 292.3 747.1 292.0 747.1 291.6 746.95 291.6 746.8 288.8 746.8 288.5 746.8 283.8 M640.75 263.6 L640.75 263.2 Q650.2 246.75 662.05 232.4 L662.3 232.4 662.3 232.0 665.4 232.3 665.4 232.4 Q668.45 233.7 670.4 236.2 L670.55 236.45 673.6 236.45 673.85 236.45 676.25 236.45 676.65 236.45 679.45 236.45 679.7 236.45 682.1 236.45 682.5 236.45 685.15 236.45 685.55 236.45 688.2 236.45 688.65 236.45 691.0 236.45 691.4 236.45 694.05 236.45 694.45 236.45 696.85 236.45 697.1 236.45 699.9 236.45 700.2 236.45 702.95 236.45 703.4 236.45 703.5 236.45 705.75 236.45 706.05 236.45 708.8 236.45 709.1 236.45 711.6 236.45 711.85 236.45 714.65 236.45 714.95 236.45 717.3 236.45 717.7 236.45 720.5 236.45 720.8 236.45 723.55 236.45 723.85 236.45 726.2 236.45 726.65 236.45 729.25 236.45 729.7 236.45 732.05 236.45 732.45 236.45 735.1 236.45 735.55 236.45 737.9 236.45 738.2 236.45 740.95 236.45 741.25 236.45 744.05 236.45 744.45 236.45 746.8 236.45 747.1 236.45 749.85 236.45 750.15 236.45 752.65 236.45 752.95 236.45 756.0 236.75 756.0 236.9 756.55 236.9 Q748.9 250.25 738.9 263.6 L738.9 263.9 738.9 264.0 733.85 264.15 733.85 264.0 708.8 264.15 708.8 264.6 Q709.1 301.05 708.4 336.4 L708.1 336.4 703.5 337.25 Q691.0 340.15 675.25 347.25 L675.25 280.45 675.55 280.45 Q686.55 275.0 693.35 264.6 L693.35 264.15 693.1 264.15 Q677.35 264.6 662.3 264.15 L655.1 264.0 640.75 263.6 M766.7 263.6 L766.7 265.55 766.7 265.95 766.7 271.7 766.7 272.1 766.7 274.45 766.7 274.9 Q773.55 302.05 799.85 309.8 806.95 311.9 811.4 309.0 811.8 308.7 811.8 307.75 L811.8 307.3 811.8 304.95 811.8 304.55 811.8 300.2 811.8 299.8 Q808.2 274.45 792.6 261.1 L792.35 261.1 767.3 261.1 767.3 261.5 Q767.3 262.9 766.7 263.6 M837.85 252.2 Q849.0 242.6 859.45 232.4 L859.7 232.4 Q868.2 238.85 877.1 244.8 L877.25 245.1 Q877.8 249.55 877.8 254.85 L877.65 255.4 877.95 255.4 877.95 255.0 Q887.4 242.45 899.5 232.4 L899.8 232.4 Q902.85 233.25 904.65 235.35 L904.95 235.5 Q922.2 234.95 937.95 236.05 L940.15 236.05 940.15 236.2 940.05 236.45 Q931.55 247.6 927.5 263.2 L927.5 267.35 927.5 267.65 927.5 317.9 927.5 318.3 927.65 318.45 938.5 326.55 938.2 326.55 Q928.6 337.25 917.9 347.0 L917.6 347.0 898.8 333.05 898.55 333.05 898.4 269.3 898.8 269.3 898.8 269.05 906.75 261.25 Q906.75 261.1 907.05 261.1 L907.05 260.95 905.5 260.95 Q896.05 260.8 886.45 260.8 L886.3 261.1 877.5 270.45 877.5 270.7 877.5 337.8 877.5 338.1 877.5 338.35 Q862.65 338.8 848.45 338.1 L848.3 338.1 Q848.15 336.85 848.15 335.45 L848.15 335.0 848.15 332.65 848.15 332.35 848.15 329.6 848.15 329.15 848.15 326.8 848.15 326.55 848.15 324.15 848.15 323.75 848.15 320.95 848.15 320.7 848.15 318.3 848.15 317.9 848.15 315.55 848.15 315.25 848.15 312.45 848.15 312.2 848.15 309.7 848.15 309.4 848.15 306.6 848.15 306.35 848.15 303.95 848.15 303.55 848.15 301.2 848.15 300.75 848.15 298.15 848.15 297.7 848.15 295.35 848.15 295.05 848.15 292.55 848.45 292.55 848.45 292.3 848.45 289.5 848.45 289.2 848.45 286.85 848.45 286.45 848.45 283.8 848.45 283.35 848.45 281.0 848.45 280.6 848.45 278.2 848.45 277.95 848.45 275.15 848.45 274.9 848.45 272.4 848.45 272.1 848.45 269.3 848.45 269.05 848.45 266.65 848.45 266.25 848.45 263.9 848.45 263.6 848.45 259.45 848.45 259.3 Q842.85 255.95 837.85 252.2 M386.1 168.85 L379.0 176.4 345.25 205.6 384.85 194.7 Q385.7 195.9 387.15 201.5 388.6 206.95 388.9 207.25 L421.35 199.1 421.55 237.6 Q421.3 237.6 421.0 249.6 L429.5 247.2 463.75 237.25 468.65 235.7 Q451.75 200.7 433.85 166.6 433.35 166.6 433.05 166.85 415.6 181.35 396.85 194.6 L396.7 193.65 Q392.35 180.6 386.85 168.6 386.35 168.6 386.1 168.85 M397.0 297.55 L397.4 297.55 397.4 297.3 397.4 295.2 Q401.6 279.35 409.85 267.5 L413.85 210.6 Q411.3 212.0 383.25 217.85 L381.25 205.3 348.65 213.5 348.55 213.2 323.85 219.15 Q357.6 188.65 388.6 155.35 L388.85 154.6 Q396.35 166.6 401.3 181.45 L401.85 181.6 Q417.8 166.6 434.6 152.3 L434.85 151.6 Q458.35 196.0 485.1 237.5 L494.15 237.85 498.05 237.85 498.05 238.15 497.8 238.15 Q488.85 249.55 484.7 265.85 L484.7 269.15 484.7 269.6 484.7 271.95 484.7 272.25 484.7 319.15 484.7 319.55 484.7 319.7 495.25 327.1 495.15 327.35 475.8 349.35 475.5 349.2 Q465.5 342.1 455.2 335.3 L455.05 335.3 Q455.2 330.7 454.5 327.1 L454.5 327.35 Q444.45 338.1 434.0 348.25 430.0 346.0 425.65 344.05 402.4 333.05 397.4 304.1 L397.25 304.1 397.0 301.35 397.0 301.05 397.0 297.55 M423.0 281.15 L423.0 282.55 423.0 282.95 423.0 287.4 423.0 287.7 423.0 290.05 423.0 290.45 Q427.05 312.2 449.75 315.4 L450.05 315.4 Q452.25 312.6 454.75 310.25 L454.9 309.95 454.9 309.55 454.9 274.3 455.2 274.3 455.2 274.05 463.0 264.7 463.1 264.45 462.7 264.45 430.55 264.45 430.55 264.7 Q425.55 271.7 423.0 281.15 M336.3 256.5 L336.3 256.25 Q346.05 244.0 358.0 233.95 L358.15 233.95 Q361.35 234.8 363.15 236.9 L363.3 237.0 398.65 237.15 398.65 237.3 398.5 237.55 Q389.9 248.85 386.0 264.7 L386.0 268.9 386.0 269.15 386.0 319.45 386.0 319.85 386.0 320.0 Q391.85 323.75 396.6 328.35 L396.3 328.45 376.4 348.95 376.25 348.65 Q366.35 341.7 356.9 334.2 L356.6 334.2 356.5 271.25 356.9 271.25 356.9 270.85 Q361.2 266.95 365.1 262.75 L365.4 262.65 365.4 262.5 364.0 262.5 344.95 262.35 Q344.65 262.35 344.65 262.5 340.6 267.5 336.0 271.95 L336.0 272.25 336.0 274.6 336.0 275.0 336.0 277.4 336.0 277.8 336.0 280.15 336.0 280.45 336.0 282.8 336.0 283.25 336.0 285.6 336.0 286.0 336.0 288.4 336.0 288.65 336.0 291.05 336.0 291.45 336.0 293.8 336.0 294.25 336.0 296.9 336.0 297.3 336.0 299.65 336.0 299.95 336.0 302.7 336.0 303.0 336.0 305.5 336.0 305.8 336.0 308.15 336.0 308.55 336.0 310.95 336.0 311.2 336.0 314.0 336.0 314.4 336.0 317.05 336.0 317.5 336.0 319.85 336.0 320.1 336.0 323.2 336.0 323.6 336.0 325.95 336.0 326.4 336.0 328.75 336.0 329.05 336.0 334.2 336.0 334.6 336.0 334.9 Q336.3 337.65 335.6 339.6 L335.6 339.9 Q320.85 340.3 306.95 339.6 306.25 336.25 306.35 332.1 L306.5 310.95 306.5 289.65 336.3 256.5 M502.25 294.5 L502.65 294.5 502.65 294.25 502.65 291.45 502.65 291.15 502.65 288.65 502.65 288.4 502.65 285.6 502.65 285.3 502.65 283.95 502.65 283.8 Q553.75 241.35 561.55 234.35 L561.8 234.35 580.75 248.3 581.0 248.3 Q581.6 252.05 581.6 256.5 L581.45 256.9 581.7 256.9 581.7 256.5 Q591.3 244.4 603.3 234.35 L603.55 234.35 Q606.65 235.2 608.45 237.3 L608.7 237.45 643.95 237.55 643.95 237.7 643.8 238.0 Q635.3 249.25 631.25 265.15 L631.25 269.15 631.25 269.6 631.25 319.85 631.25 320.25 631.4 320.4 Q637.1 324.15 641.85 328.75 L641.55 328.9 621.65 349.35 621.65 349.1 Q611.65 342.0 602.2 334.6 L602.05 334.6 601.9 271.7 602.2 271.7 602.2 271.25 610.55 263.2 Q610.55 263.05 610.8 263.05 L610.8 262.9 609.3 262.9 Q599.8 262.75 590.2 262.75 L589.95 262.75 Q585.9 267.8 581.3 272.25 L581.3 272.65 581.3 275.0 581.3 275.45 581.3 277.8 581.3 278.1 581.3 280.45 581.3 280.85 581.3 283.25 581.3 283.65 581.3 286.0 581.3 286.3 581.3 288.65 581.3 289.1 581.3 291.45 581.3 291.85 581.3 294.25 581.3 294.5 581.3 297.3 581.3 297.55 581.3 300.1 581.3 300.35 581.3 303.15 581.3 303.4 581.3 305.8 581.3 306.2 581.3 308.55 581.3 308.85 581.3 311.35 581.3 311.65 581.3 314.4 581.3 314.7 581.3 317.5 581.3 317.75 581.3 320.25 581.3 320.55 581.3 323.6 581.3 324.0 581.3 326.4 581.3 326.65 581.3 329.05 581.3 329.45 581.3 334.6 581.3 334.9 581.3 335.3 Q581.6 338.1 581.0 340.05 L581.0 340.15 Q566.15 340.6 552.2 340.05 551.65 336.7 551.65 332.5 L551.95 264.45 551.65 264.3 Q549.55 262.5 546.8 261.4 L546.5 261.4 531.75 274.05 531.75 274.3 531.75 339.75 531.75 340.05 531.75 340.15 Q516.7 340.6 502.65 340.05 L502.5 340.05 502.25 337.25 502.25 336.95 502.25 334.6 502.25 334.2 502.25 331.55 502.25 331.1 502.25 328.75 502.25 328.45 502.25 325.95 502.25 325.7 502.25 322.9 502.25 322.65 502.25 320.25 502.25 319.85 502.25 317.5 502.25 317.05 502.25 314.4 502.25 314.0 502.25 311.65 502.25 311.35 502.25 308.55 502.25 308.3 502.25 305.8 502.25 305.5 502.25 303.15 502.25 302.7 502.25 300.1 502.25 299.65 502.25 297.3 502.25 296.9 502.25 294.5 M181.4 36.7 L174.4 49.55 173.8 50.55 173.75 50.6 165.9 36.7 162.35 30.4 154.7 16.8 154.65 16.75 151.9 16.85 65.9 17.9 65.85 17.9 Q61.25 24.85 56.5 30.0 50.55 36.65 43.45 42.1 35.65 48.35 25.75 53.1 18.35 56.85 9.9 59.9 L9.9 335.55 11.55 336.2 24.7 341.7 25.75 342.2 27.1 342.95 41.5 351.9 43.45 353.35 44.95 354.55 54.5 363.25 56.65 365.45 65.85 377.6 65.9 377.6 216.75 377.7 226.05 365.45 Q232.05 358.8 239.15 353.5 246.95 347.25 256.85 342.35 264.35 338.6 272.7 335.8 L272.55 59.8 Q265.3 57.55 256.85 53.1 246.65 47.95 239.15 42.1 231.9 36.25 226.2 29.85 219.95 22.75 217.15 16.9 L192.85 16.35 192.8 16.35 192.05 17.75 185.25 29.2 181.95 35.9 181.4 36.7 M161.2 9.4 L174.85 37.95 188.6 8.95 223.7 9.1 Q239.15 42.1 281.75 52.95 L282.15 339.0 282.45 342.1 Q249.85 349.9 221.9 387.3 L57.75 387.3 Q44.15 353.65 0.0 341.8 L0.3 339.0 0.3 51.55 Q39.4 41.95 58.9 8.55 L161.2 9.4 M90.55 245.9 Q84.55 253.7 76.05 253.7 67.3 253.7 61.45 245.9 55.45 238.0 55.45 226.7 55.45 215.7 61.45 207.9 65.75 201.9 71.6 200.4 67.15 199.95 62.15 202.35 54.2 206.4 49.35 216.25 L48.25 218.5 Q42.65 230.2 44.6 242.55 45.75 250.1 49.35 256.35 50.45 258.6 52.15 260.65 54.65 264.0 58.0 266.95 67.15 275.0 76.75 270.25 82.05 267.65 87.75 260.95 L87.75 260.65 88.75 259.7 Q94.75 252.15 104.35 233.25 L107.4 227.1 113.4 216.7 111.85 214.05 96.8 185.5 89.6 171.3 87.65 167.55 Q82.75 158.05 80.4 154.45 81.35 151.4 84.15 145.95 L90.15 134.85 Q99.2 117.85 108.65 106.7 L127.3 149.7 137.3 167.55 139.0 170.45 143.15 162.65 Q150.7 148.9 158.5 135.95 169.75 117.7 173.95 114.2 177.85 111.15 181.75 109.65 200.25 102.55 226.0 125.2 230.85 129.55 234.65 134.0 243.7 144.7 247.45 157.4 L248.95 163.2 Q251.9 178.8 247.45 193.15 L245.05 199.7 Q240.9 209.3 234.75 215.55 230.6 220.0 225.45 222.65 215.95 227.55 207.2 223.9 205.8 223.35 204.55 222.65 L201.1 220.15 Q198.45 218.05 196.2 215.55 185.75 204.3 186.75 189.95 187.0 185.35 188.25 181.75 188.85 178.1 191.05 175.2 L191.45 174.65 Q195.35 169.65 200.8 169.65 205.8 169.65 210.0 174.65 213.6 179.65 213.75 186.45 213.6 193.7 210.0 198.3 206.1 203.45 200.8 203.45 195.25 203.45 191.45 198.3 L190.5 197.05 Q192.15 202.75 196.2 207.35 199.15 210.85 203.15 213.6 205.25 214.85 207.2 215.7 L207.75 216.0 Q214.6 218.2 221.8 215.0 229.9 210.85 234.75 201.1 235.2 199.85 235.75 198.85 241.3 187.05 239.2 174.65 238.25 167.25 234.75 160.85 L232.0 156.55 Q229.35 153.2 226.0 150.3 216.95 142.2 207.2 147.1 201.9 149.6 196.2 156.25 L196.05 156.55 195.35 157.65 Q189.4 165.15 179.5 184.1 L167.65 206.1 162.8 215.3 170.45 227.95 Q176.3 237.4 178.1 239.8 181.85 245.2 184.8 248.4 194.95 257.9 203.05 264.3 215.3 274.45 221.8 277.95 L219.6 280.85 Q197.45 313.85 178.25 309.4 168.8 307.15 158.6 294.65 152.8 287.4 146.65 276.65 L137.6 260.8 131.05 272.65 128.85 277.35 Q119.9 295.2 110.05 303.1 106.15 306.05 102.1 307.7 83.75 314.8 58.0 292.0 53.1 287.8 49.5 283.35 40.15 272.65 36.4 259.85 35.55 257.05 35.0 254.0 31.95 238.55 36.4 224.05 37.4 220.85 38.9 217.65 43.1 207.9 49.35 201.65 53.4 197.35 58.55 194.7 68.0 189.8 76.75 193.3 L79.4 194.55 82.9 196.9 87.75 201.65 Q98.2 213.05 97.25 227.25 96.7 234.9 93.9 240.35 92.65 243.25 90.55 245.9 M156.8 204.0 Q156.95 203.85 157.5 204.45 L157.8 205.0 169.5 186.45 Q177.55 171.85 178.55 170.2 182.45 162.55 186.05 156.55 192.05 146.5 196.2 141.35 199.0 138.45 201.1 137.45 L195.95 135.65 Q190.5 134.4 187.6 136.2 186.45 137.05 184.65 140.0 181.75 144.15 177.15 152.9 L175.2 156.55 161.25 182.45 152.9 196.75 156.8 204.0 M109.9 152.25 Q111.45 154.45 116.3 163.65 L118.25 167.55 123.7 177.55 128.4 185.75 Q130.2 188.4 141.1 208.6 151.65 228.5 153.2 232.0 L163.9 250.5 Q171.15 262.45 175.6 268.6 178.65 273.05 180.2 274.05 183.4 275.7 188.55 272.9 L193.3 269.85 Q191.2 269.15 188.0 265.95 182.15 259.85 172.55 244.95 L169.2 240.05 Q163.9 231.45 158.35 221.55 L133.0 175.75 130.2 170.6 128.85 167.55 124.5 159.45 121.3 152.5 Q118.55 145.8 116.85 140.65 L113.4 145.4 Q109.9 150.3 109.9 152.25 M83.05 279.9 L87.9 281.55 Q93.45 282.95 96.25 280.85 97.5 280.15 99.3 277.35 102.1 273.05 106.85 264.4 L108.8 260.65 122.55 235.2 117.55 224.9 105.45 247.0 Q101.55 254.8 98.05 260.65 91.95 270.85 87.75 275.7 85.0 278.9 83.05 279.9" fill="#000000" fill-rule="evenodd" stroke="none"/>
    <path d="M386.1 168.85 Q386.35 168.6 386.85 168.6 392.35 180.6 396.7 193.65 L396.85 194.6 Q415.6 181.35 433.05 166.85 433.35 166.6 433.85 166.6 451.75 200.7 468.65 235.7 L463.75 237.25 429.5 247.2 421.0 249.6 Q421.3 237.6 421.55 237.6 L421.35 199.1 388.9 207.25 Q388.6 206.95 387.15 201.5 385.7 195.9 384.85 194.7 L345.25 205.6 379.0 176.4 386.1 168.85" fill="#836a9c" fill-rule="evenodd" stroke="none"/>
    <path d="M181.4 36.7 L204.85 36.7 208.3 42.4 208.45 42.4 208.45 42.55 Q214.6 51.45 223.2 58.4 L223.05 58.4 Q231.7 65.5 243.55 70.95 L251.45 74.4 251.45 321.1 243.55 324.4 Q231.4 330.15 223.2 336.95 214.45 344.05 208.45 352.95 L204.7 358.8 78.0 358.8 74.25 352.95 Q68.0 344.05 59.5 336.95 51.0 330.15 39.2 324.4 L38.75 324.4 31.1 321.2 31.1 74.4 39.2 70.95 38.75 70.95 Q50.75 65.65 59.5 58.4 67.85 51.45 74.25 42.55 L78.0 36.7 165.9 36.7 173.75 50.6 173.8 50.55 173.8 50.6 174.4 49.55 181.4 36.7 M156.8 204.0 L152.9 196.75 161.25 182.45 175.2 156.55 177.15 152.9 Q181.75 144.15 184.65 140.0 186.45 137.05 187.6 136.2 190.5 134.4 195.95 135.65 L201.1 137.45 Q199.0 138.45 196.2 141.35 192.05 146.5 186.05 156.55 182.45 162.55 178.55 170.2 177.55 171.85 169.5 186.45 L157.8 205.0 157.5 204.45 Q156.95 203.85 156.8 204.0 M90.55 245.9 Q92.65 243.25 93.9 240.35 96.7 234.9 97.25 227.25 98.2 213.05 87.75 201.65 L82.9 196.9 79.4 194.55 76.75 193.3 Q68.0 189.8 58.55 194.7 53.4 197.35 49.35 201.65 43.1 207.9 38.9 217.65 37.4 220.85 36.4 224.05 31.95 238.55 35.0 254.0 35.55 257.05 36.4 259.85 40.15 272.65 49.5 283.35 53.1 287.8 58.0 292.0 83.75 314.8 102.1 307.7 106.15 306.05 110.05 303.1 119.9 295.2 128.85 277.35 L131.05 272.65 137.6 260.8 146.65 276.65 Q152.8 287.4 158.6 294.65 168.8 307.15 178.25 309.4 197.45 313.85 219.6 280.85 L221.8 277.95 Q215.3 274.45 203.05 264.3 194.95 257.9 184.8 248.4 181.85 245.2 178.1 239.8 176.3 237.4 170.45 227.95 L162.8 215.3 167.65 206.1 179.5 184.1 Q189.4 165.15 195.35 157.65 L196.05 156.55 196.2 156.25 Q201.9 149.6 207.2 147.1 216.95 142.2 226.0 150.3 229.35 153.2 232.0 156.55 L234.75 160.85 Q238.25 167.25 239.2 174.65 241.3 187.05 235.75 198.85 235.2 199.85 234.75 201.1 229.9 210.85 221.8 215.0 214.6 218.2 207.75 216.0 L207.2 215.7 Q205.25 214.85 203.15 213.6 199.15 210.85 196.2 207.35 192.15 202.75 190.5 197.05 L191.45 198.3 Q195.25 203.45 200.8 203.45 206.1 203.45 210.0 198.3 213.6 193.7 213.75 186.45 213.6 179.65 210.0 174.65 205.8 169.65 200.8 169.65 195.35 169.65 191.45 174.65 L191.05 175.2 Q188.85 178.1 188.25 181.75 187.0 185.35 186.75 189.95 185.75 204.3 196.2 215.55 198.45 218.05 201.1 220.15 L204.55 222.65 Q205.8 223.35 207.2 223.9 215.95 227.55 225.45 222.65 230.6 220.0 234.75 215.55 240.9 209.3 245.05 199.7 L247.45 193.15 Q251.9 178.8 248.95 163.2 L247.45 157.4 Q243.7 144.7 234.65 134.0 230.85 129.55 226.0 125.2 200.25 102.55 181.75 109.65 177.85 111.15 173.95 114.2 169.75 117.7 158.5 135.95 150.7 148.9 143.15 162.65 L139.0 170.45 137.3 167.55 127.3 149.7 108.65 106.7 Q99.2 117.85 90.15 134.85 L84.15 145.95 Q81.35 151.4 80.4 154.45 82.75 158.05 87.65 167.55 L89.6 171.3 96.8 185.5 111.85 214.05 113.4 216.7 107.4 227.1 104.35 233.25 Q94.75 252.15 88.75 259.7 L87.75 260.65 87.75 260.95 Q82.05 267.65 76.75 270.25 67.15 275.0 58.0 266.95 54.65 264.0 52.15 260.65 50.45 258.6 49.35 256.35 45.75 250.1 44.6 242.55 42.65 230.2 48.25 218.5 L49.35 216.25 Q54.2 206.4 62.15 202.35 67.15 199.95 71.6 200.4 65.75 201.9 61.45 207.9 55.45 215.7 55.45 226.7 55.45 238.0 61.45 245.9 67.3 253.7 76.05 253.7 84.55 253.7 90.55 245.9 M48.8 163.65 L50.45 104.6 48.1 79.15 47.1 78.3 46.3 79.15 43.9 111.3 46.95 163.65 47.95 164.6 Q48.8 164.6 48.8 163.65 M77.3 49.35 L74.95 79.4 77.3 109.5 78.3 110.35 Q79.15 110.35 79.15 109.5 L81.5 79.4 79.15 49.35 Q79.15 48.5 78.3 48.5 77.3 48.5 77.3 49.35 M109.9 152.25 Q109.9 150.3 113.4 145.4 L116.85 140.65 Q118.55 145.8 121.3 152.5 L124.5 159.45 128.85 167.55 130.2 170.6 133.0 175.75 158.35 221.55 Q163.9 231.45 169.2 240.05 L172.55 244.95 Q182.15 259.85 188.0 265.95 191.2 269.15 193.3 269.85 L188.55 272.9 Q183.4 275.7 180.2 274.05 178.65 273.05 175.6 268.6 171.15 262.45 163.9 250.5 L153.2 232.0 Q151.65 228.5 141.1 208.6 130.2 188.4 128.4 185.75 L123.7 177.55 118.25 167.55 116.3 163.65 Q111.45 154.45 109.9 152.25 M83.05 279.9 Q85.0 278.9 87.75 275.7 91.95 270.85 98.05 260.65 101.55 254.8 105.45 247.0 L117.55 224.9 122.55 235.2 108.8 260.65 106.85 264.4 Q102.1 273.05 99.3 277.35 97.5 280.15 96.25 280.85 93.45 282.95 87.9 281.55 L83.05 279.9 M80.65 313.85 L78.7 330.4 80.65 347.1 81.5 347.55 Q82.2 347.55 82.2 347.1 L84.15 330.4 82.2 313.85 Q82.2 313.3 81.5 313.3 80.65 313.3 80.65 313.85 M39.2 283.9 L37.25 300.5 39.2 317.2 40.0 317.6 Q40.7 317.6 40.7 317.2 L42.65 300.5 40.7 283.9 Q40.7 283.35 40.0 283.35 39.2 283.35 39.2 283.9 M238.4 256.65 L236.0 279.45 236.15 298.55 238.4 316.65 239.2 317.6 Q240.05 317.6 240.05 316.65 L242.55 286.55 240.05 256.65 Q240.05 255.65 239.2 255.65 L238.4 256.65" fill="#818e46" fill-rule="evenodd" stroke="none"/>
    <path d="M165.9 36.7 L78.0 36.7 74.25 42.55 Q67.85 51.45 59.5 58.4 50.75 65.65 38.75 70.95 L39.2 70.95 31.1 74.4 31.1 321.2 38.75 324.4 39.2 324.4 Q51.0 330.15 59.5 336.95 68.0 344.05 74.25 352.95 L78.0 358.8 204.7 358.8 208.45 352.95 Q214.45 344.05 223.2 336.95 231.4 330.15 243.55 324.4 L251.45 321.1 251.45 74.4 243.55 70.95 Q231.7 65.5 223.05 58.4 L223.2 58.4 Q214.6 51.45 208.45 42.55 L208.45 42.4 208.3 42.4 204.85 36.7 181.4 36.7 181.95 35.9 185.25 29.2 208.3 30.4 213.6 38.9 Q219.15 47.0 227.25 53.55 235.3 60.35 246.3 65.2 251.6 67.75 255.5 69.0 L257.75 69.8 257.75 325.65 255.5 326.25 Q251.6 327.5 246.3 330.0 235.2 335.4 227.25 341.8 219.05 348.8 213.6 356.6 L213.6 356.45 208.45 365.05 74.0 365.05 73.15 363.1 69.25 356.45 69.25 356.6 Q63.55 348.65 55.45 341.8 47.8 335.55 36.4 330.0 L24.85 325.55 24.85 69.8 36.4 65.2 Q47.25 60.35 55.35 53.55 L55.45 53.55 Q63.4 47.15 69.25 38.9 L73.15 32.25 74.0 30.4 162.35 30.4 165.9 36.7" fill="#424c17" fill-rule="evenodd" stroke="none"/>
    <path d="M162.35 30.4 L74.0 30.4 73.15 32.25 69.25 38.9 Q63.4 47.15 55.45 53.55 L55.35 53.55 Q47.25 60.35 36.4 65.2 L24.85 69.8 24.85 325.55 36.4 330.0 Q47.8 335.55 55.45 341.8 63.55 348.65 69.25 356.6 L69.25 356.45 73.15 363.1 74.0 365.05 208.45 365.05 213.6 356.45 213.6 356.6 Q219.05 348.8 227.25 341.8 235.2 335.4 246.3 330.0 251.6 327.5 255.5 326.25 L257.75 325.65 257.75 69.8 255.5 69.0 Q251.6 67.75 246.3 65.2 235.3 60.35 227.25 53.55 219.15 47.0 213.6 38.9 L208.3 30.4 185.25 29.2 192.05 17.75 192.85 16.35 217.15 16.9 Q219.95 22.75 226.2 29.85 231.9 36.25 239.15 42.1 246.65 47.95 256.85 53.1 265.3 57.55 272.55 59.8 L272.7 335.8 Q264.35 338.6 256.85 342.35 246.95 347.25 239.15 353.5 232.05 358.8 226.05 365.45 L216.75 377.7 65.9 377.6 56.7 365.5 56.65 365.45 54.5 363.25 44.95 354.55 43.5 353.35 41.5 351.9 27.1 342.95 25.75 342.2 24.7 341.7 11.55 336.2 9.95 335.55 9.95 59.95 Q18.45 56.85 25.8 53.1 35.7 48.4 43.5 42.1 50.6 36.7 56.6 30.0 61.3 24.85 65.9 17.9 L151.9 16.85 154.7 16.8 162.35 30.4" fill="#866d9e" fill-rule="evenodd" stroke="none"/>
    <path d="M77.3 49.35 Q77.3 48.5 78.3 48.5 79.15 48.5 79.15 49.35 L81.5 79.4 79.15 109.5 Q79.15 110.35 78.3 110.35 L77.3 109.5 74.95 79.4 77.3 49.35 M48.8 163.65 Q48.8 164.6 47.95 164.6 L46.95 163.65 43.9 111.3 46.3 79.15 47.1 78.3 48.1 79.15 50.45 104.6 48.8 163.65 M39.2 283.9 Q39.2 283.35 40.0 283.35 40.7 283.35 40.7 283.9 L42.65 300.5 40.7 317.2 Q40.7 317.6 40.0 317.6 L39.2 317.2 37.25 300.5 39.2 283.9 M80.65 313.85 Q80.65 313.3 81.5 313.3 82.2 313.3 82.2 313.85 L84.15 330.4 82.2 347.1 Q82.2 347.55 81.5 347.55 L80.65 347.1 78.7 330.4 80.65 313.85 M238.4 256.65 L239.2 255.65 Q240.05 255.65 240.05 256.65 L242.55 286.55 240.05 316.65 Q240.05 317.6 239.2 317.6 L238.4 316.65 236.15 298.55 236.0 279.45 238.4 256.65" fill="#6f7b37" fill-rule="evenodd" stroke="none"/>
  </g>
</svg>
