<svg xmlns="http://www.w3.org/2000/svg" version="1.1" xmlns:xlink="http://www.w3.org/1999/xlink" preserveAspectRatio="xMidYMid meet" x="0px" y="0px" width="100%" height="100%" viewBox="0 0 547 178">
<defs>
<g id="_______2_0_Layer0_0_FILL">
<path fill="#000000" stroke="none" d="
M 167.75 79.6
Q 166.9 78.6 165.4 78.2
L 165.3 78.2
Q 159.65 82.95 155.05 88.7 155.05 88.75 155.05 88.85
L 147.5 97.25 140.95 104.5
Q 140.95 110.55 140.95 114.6 140.95 117.15 140.9 124.55 140.85 126.55 141.2 128.1 144.3 128.25 147.5 128.3 151.05 128.35 154.75 128.25
L 154.75 128.1
Q 155.05 127.2 154.9 125.9 154.9 125.85 154.9 125.75 154.9 125.6 154.9 125.55 154.9 124.4 154.9 123.15 154.9 123.05 154.9 123 154.9 122.4 154.9 121.9 154.9 121.75 154.9 121.65 154.9 121.1 154.9 120.55 154.9 120.5 154.9 120.35 154.9 119.7 154.9 118.9 154.9 118.85 154.9 118.8 154.9 118.2 154.9 117.65 154.9 117.55 154.9 117.45 154.9 116.8 154.9 116.2 154.9 116.1 154.9 116 154.9 115.35 154.9 114.7
L 154.9 114.6
Q 154.9 114 154.9 113.45 154.9 113.4 154.9 113.25 154.9 112.75 154.9 112.15 154.9 112.05 154.9 112 154.9 111.4 154.9 110.8 154.9 110.75 154.9 110.7 154.9 110.05 154.9 109.4 154.9 109.3 154.9 109.25 154.9 108.65 154.9 108.15 154.9 108 154.9 107.95 154.9 107.25 154.9 106.7 154.9 106.55 154.9 106.45 154.9 105.9 154.9 105.35 154.9 105.3 154.9 105.15 154.9 104.65 154.9 104.05 154.9 103.95 154.9 103.9 154.9 103.35 154.9 102.8 154.9 102.65 154.9 102.6 154.9 102 154.9 101.5 154.9 101.4 154.9 101.25 154.9 100.75 154.9 100.15 154.9 100.1 154.9 100 154.9 99.45 154.9 98.9 154.9 98.8 154.9 98.7 154.9 98.15 154.9 97.6 154.9 97.55 154.9 97.4 154.9 96.9 154.9 96.3 154.9 96.2 154.9 96.15 157.1 94.05 159 91.7 159 91.6 159.15 91.6 163.6 91.6 168.15 91.7 168.5 91.7 168.8 91.7
L 168.8 91.75
Q 168.75 91.75 168.65 91.8 166.85 93.8 164.8 95.6 164.8 95.75 164.8 95.8 164.65 95.8 164.6 95.8 164.6 110.7 164.65 125.55
L 164.8 125.55
Q 169.25 129.1 173.95 132.4 174 132.45 174 132.55 178.75 127.75 183.4 122.85 183.5 122.8 183.55 122.8 181.3 120.65 178.55 118.85
L 178.55 118.8
Q 178.55 118.7 178.55 118.6 178.55 106.75 178.55 94.8 178.55 94.75 178.55 94.7 178.55 93.7 178.55 92.7 180.4 85.2 184.45 79.9 184.55 79.9 184.55 79.75
L 184.55 79.7
Q 176.2 79.6 167.8 79.6
L 167.75 79.6
M 179.9 40.7
Q 179.9 40.9 179.8 41.05 165.15 56.75 149.15 71.2
L 160.85 68.35
Q 160.85 68.45 160.9 68.5
L 176.3 64.65 177.25 70.55
Q 190.5 67.8 191.7 67.15
L 189.8 94.05
Q 185.9 99.65 183.95 107.15 183.95 107.65 183.95 108.15 183.95 108.2 183.95 108.25 183.85 108.25 183.75 108.25 183.75 109.1 183.75 109.9 183.75 109.95 183.75 110.05 183.75 110.7 183.85 111.35
L 183.95 111.35
Q 186.3 125 197.3 130.2 199.35 131.15 201.25 132.2 206.2 127.4 210.95 122.35 210.95 122.25 210.95 122.2 211.25 123.9 211.2 126.1
L 211.25 126.1
Q 216.15 129.3 220.85 132.65 220.95 132.75 221 132.75 225.6 127.55 230.15 122.35 230.2 122.25 230.2 122.2 227.75 120.4 225.2 118.7
L 225.2 118.65
Q 225.2 118.5 225.2 118.45 225.2 107.4 225.2 96.3 225.2 96.2 225.2 96.15 225.2 95.55 225.2 95.05 225.2 94.95 225.2 94.8 225.2 94.05 225.2 93.25 227.15 85.55 231.4 80.15
L 231.5 80.15 231.5 80
Q 230.6 80 229.65 80 227.55 79.95 225.4 79.85 212.75 60.25 201.65 39.25 201.65 39.5 201.5 39.6 193.6 46.35 186.05 53.45 185.8 53.45 185.8 53.35 183.45 46.35 179.9 40.7
M 178.6 47.4
Q 178.7 47.3 178.95 47.3 181.55 52.95 183.6 59.15 183.7 59.35 183.7 59.6 192.55 53.3 200.8 46.45 200.95 46.35 201.15 46.35 209.65 62.45 217.6 79 217.65 79.05 215.3 79.75 211.05 81 199.1 84.45 197.2 85 195.1 85.6 195.25 79.9 195.35 79.9
L 195.25 61.7 179.9 65.55
Q 179.8 65.4 179.1 62.85 178.4 60.2 178 59.65
L 159.3 64.8 175.25 51
Q 176.95 49.25 178.6 47.4
M 199.6 92.7
Q 199.6 92.65 199.6 92.6 207.25 92.6 214.8 92.6 214.95 92.6 215 92.6 215 92.65 214.95 92.7 213.1 94.9 211.25 97.15 211.25 97.2 211.25 97.25 211.2 97.25 211.1 97.25 211.1 105.6 211.1 113.9 211.1 114.05 211.1 114.1 211.1 114.2 211.05 114.25 209.85 115.35 208.85 116.7 208.75 116.7 208.7 116.7 197.95 115.15 196.05 104.9 196.05 104.75 196.05 104.7 196.05 104.2 196.05 103.6 196.05 103.5 196.05 103.45 196.05 102.35 196.05 101.35 196.05 101.2 196.05 101.15 196.05 100.8 196.05 100.5 197.25 96 199.6 92.7
M 247.45 97.25
Q 247.45 97.2 247.45 97.15 251 94.25 254.4 91.15 254.5 91.15 254.55 91.15 255.85 91.7 256.85 92.55 256.9 92.6 257 92.6 257 108.65 256.85 124.75 256.85 126.75 257.1 128.35 257.25 128.35 257.4 128.35 263.85 128.6 270.7 128.4
L 270.7 128.35
Q 271 127.4 270.85 126.1 270.85 126 270.85 125.9 270.85 125.85 270.85 125.75 270.85 124.55 270.85 123.3 270.85 123.25 270.85 123.15 270.85 122.6 270.85 122 270.85 121.95 270.85 121.9 270.85 121.3 270.85 120.75 270.85 120.65 270.85 120.55 270.85 119.8 270.85 119.1 270.85 119.05 270.85 118.95 270.85 118.4 270.85 117.8 270.85 117.7 270.85 117.65 270.85 117 270.85 116.35 270.85 116.3 270.85 116.2 270.85 115.55 270.85 114.9 270.85 114.85 270.85 114.75 270.85 114.2 270.85 113.6 270.85 113.5 270.85 113.45 270.85 112.85 270.85 112.35 270.85 112.25 270.85 112.15 270.85 111.6 270.85 111 270.85 110.95 270.85 110.9 270.85 110.25 270.85 109.55 270.85 109.5 270.85 109.45 270.85 108.85 270.85 108.25 270.85 108.2 270.85 108.15 270.85 107.45 270.85 106.8 270.85 106.75 270.85 106.7 270.85 106.1 270.85 105.55 270.85 105.45 270.85 105.35 270.85 104.75 270.85 104.25 270.85 104.2 270.85 104.05 270.85 103.5 270.85 102.95 270.85 102.85 270.85 102.8 270.85 102.2 270.85 101.65 270.85 101.55 270.85 101.5 270.85 100.9 270.85 100.35 270.85 100.3 270.85 100.15 270.85 99.65 270.85 99.05 270.85 99 270.85 98.9 270.85 98.3 270.85 97.8 270.85 97.65 270.85 97.6 270.85 97 270.85 96.45 270.85 96.4 270.85 96.3 273.05 94.2 274.95 91.8 275 91.8 275.05 91.8 279.6 91.8 284.1 91.85 284.45 91.85 284.8 91.85
L 284.8 91.95
Q 284.7 91.95 284.7 92 282.8 93.95 280.75 95.8 280.75 95.9 280.75 96 280.65 96 280.6 96 280.6 110.9 280.65 125.75
L 280.75 125.75
Q 285.2 129.25 289.95 132.6
L 289.95 132.75
Q 293.3 129.4 296.55 126 297.95 124.55 299.35 123.05 299.4 123 299.5 123 298.1 121.65 296.55 120.45 295.6 119.7 294.55 119.05 294.45 119.05 294.45 118.95 294.45 118.85 294.45 118.8 294.45 106.85 294.45 95.05 294.45 94.95 294.45 94.8 294.45 93.85 294.45 92.95 295.3 89.65 296.55 86.8 298.15 83.1 300.4 80.1 300.5 80 300.5 79.95
L 300.5 79.9
Q 298.5 79.9 296.55 79.9 290.15 79.85 283.8 79.85 283.75 79.85 283.7 79.75 282.85 78.75 281.4 78.35 281.35 78.35 281.25 78.35 275.6 83.1 271.05 88.85 271.05 89 271.05 89.05
L 270.95 89.05
Q 270.95 89 271 88.85 271 86.75 270.7 84.95 270.65 84.95 270.6 84.95 266.15 81.6 261.65 78.35 261.6 78.35 261.55 78.35 260.4 79.4 257.4 81.95 250.5 87.8 233.7 101.75
L 233.7 101.8
Q 233.7 102.15 233.7 102.45 233.7 102.5 233.7 102.6 233.7 103.25 233.7 103.9 233.7 103.95 233.7 104.05 233.7 104.65 233.7 105.2 233.7 105.3 233.7 105.35 233.7 106 233.7 106.7 233.7 106.75 233.7 106.8 233.6 106.8 233.5 106.8 233.5 107.4 233.5 107.95 233.5 108.05 233.5 108.15 233.5 108.65 233.5 109.25 233.5 109.3 233.5 109.45 233.5 110.05 233.5 110.7 233.5 110.75 233.5 110.9 233.5 111.4 233.5 112 233.5 112.05 233.5 112.15 233.5 112.75 233.5 113.3 233.5 113.4 233.5 113.45 233.5 114.1 233.5 114.75 233.5 114.85 233.5 114.9 233.5 115.5 233.5 116 233.5 116.15 233.5 116.2 233.5 116.85 233.5 117.45 233.5 117.6 233.5 117.65 233.5 118.2 233.5 118.8 233.5 118.85 233.5 118.95 233.5 119.5 233.5 120.1 233.5 120.15 233.5 120.25 233.5 120.9 233.5 121.55 233.5 121.6 233.5 121.65 233.5 122.25 233.5 122.85 233.5 122.9 233.5 123 233.5 123.6 233.5 124.1 233.5 124.15 233.5 124.3 233.5 125 233.5 125.55 233.5 125.7 233.5 125.75 233.5 126.3 233.5 126.85 233.5 126.95 233.5 127 233.5 127.65 233.6 128.35
L 233.7 128.35
Q 240.35 128.6 247.45 128.4
L 247.45 128.35
Q 247.45 128.25 247.45 128.2 247.45 112.75 247.45 97.25
M 362.05 76.65
Q 361.5 76.75 361.25 77 360.35 77.85 359.55 79 352.7 88.15 349.25 100.75 349.3 101.15 349.25 101.55 349.25 101.6 349.25 101.75 349.15 101.75 349.1 101.75 349.1 102.85 349.1 103.95 349.1 104.05 349.1 104.1 349.1 104.75 349.15 105.45
L 349.25 105.45
Q 349.25 105.5 349.25 105.6 349.25 105.7 349.25 105.75 349.25 106.4 349.35 107.05
L 349.4 107.05
Q 352 120.55 362.45 126.2 367.7 129.05 374.3 130.5 382.8 122.85 388.6 112.65 390 110.1 390.35 106.55 390.6 106.2 390.45 105.45 390.45 105.35 390.45 105.3 390.45 105.15 390.45 105.1 390.45 105.05 390.45 104.95 390.8 104.6 390.7 103.8 390.7 103.7 390.7 103.65 390.7 103.6 390.7 103.5 390.8 102.75 390.45 102.35 390.55 100.95 390.35 99.75 387.7 86.3 378.85 79.05
L 378.85 79
Q 378.2 78.9 377.6 78.9 377.45 78.9 377.4 78.9 376.8 78.9 376.25 78.9 376.2 78.9 376.1 78.9 375.55 78.9 374.95 78.9 374.9 78.9 374.85 78.9 374.25 78.9 373.7 78.9 373.6 78.9 373.5 78.9 372.9 78.9 372.4 78.9 372.3 78.9 372.2 78.9 371.65 78.9 371.05 78.9 371 78.9 370.95 78.9 370.35 78.9 369.8 78.9 369.7 78.9 369.65 78.9 369.05 78.9 368.5 78.9 368.45 78.9 368.3 78.9 367.8 78.9 367.2 78.9 367.1 78.9 367.05 78.85 364.6 77.65 362.05 76.65
M 358.5 93.1
Q 358.5 92.65 358.5 92.2 358.8 91.85 358.8 91.2 358.8 91.15 358.8 91 364.7 91 370.6 91 370.65 91 370.75 91 378.1 97.3 379.8 109.3 379.8 109.4 379.8 109.5 379.8 110.5 379.8 111.55 379.8 111.65 379.8 111.75 379.8 112.25 379.8 112.85 379.8 112.9 379.8 113.05 379.8 113.5 379.65 113.65 377.5 115.05 374.15 114.05 361.75 110.35 358.5 97.55 358.5 97.4 358.5 97.3 358.45 96.75 358.5 96.2 358.5 96.15 358.5 96 358.5 94.7 358.5 93.3 358.5 93.2 358.5 93.1
M 343.55 79.35
Q 342.9 79.35 342.3 79.35 342.2 79.35 342.1 79.35 341.55 79.35 341 79.35 340.95 79.35 340.8 79.35 340.2 79.35 339.55 79.35 339.5 79.35 339.35 79.35 338.85 79.35 338.25 79.35 338.15 79.35 338.1 79.35 337.45 79.35 336.8 79.35 336.75 79.35 336.65 79.35 336 79.35 335.35 79.35 335.3 79.35 335.15 79.35 334.65 79.35 334.05 79.35 333.95 79.35 333.9 79.35 333.25 79.35 332.55 79.35 332.5 79.35 332.45 79.35 331.85 79.35 331.25 79.35 331.2 79.35 331.15 79.35 330.45 79.35 329.85 79.35 329.75 79.35 329.7 79.35 329.15 79.35 328.6 79.35 328.45 79.35 328.35 79.35 327.7 79.35 327.05 79.35 327 79.35 326.9 79.35 326.25 79.35 325.6 79.35 325.55 79.35 325.5 79.35 324.9 79.35 324.35 79.35 324.25 79.35 324.15 79.35 323.5 79.35 322.9 79.35 322.8 79.35 322.7 79.35 322.15 79.35 321.6 79.35 321.55 79.35 321.4 79.35 320.8 79.35 320.15 79.35 320.05 79.35 319.95 79.35 319.3 79.35 318.7 79.35 318.55 79.35 318.5 79.35 317.9 79.35 317.35 79.35
L 317.25 79.35
Q 316.6 79.35 315.95 79.35 315.85 79.35 315.75 79.35 315.2 79.35 314.6 79.35 314.55 79.35 314.5 79.35 313.75 79.35 313.05 79.35 313.05 79.3 313 79.25 312.05 78.05 310.6 77.45
L 310.6 77.4
Q 309.9 77.25 309.15 77.25 309.15 77.4 309.15 77.45
L 309.05 77.45
Q 303.45 84.25 298.95 92 298.95 92.1 298.95 92.2 302.3 92.35 305.75 92.4 307.45 92.45 309.15 92.45 316.25 92.65 323.7 92.45 323.75 92.45 323.85 92.45 323.85 92.6 323.85 92.65 320.6 97.6 315.4 100.15 315.35 100.15 315.25 100.15 315.25 115.95 315.25 131.75 322.7 128.4 328.6 127 329.75 126.8 330.8 126.6 330.85 126.6 330.95 126.6 331.25 109.9 331.15 92.65 331.15 92.6 331.15 92.45 337.05 92.45 342.95 92.4
L 342.95 92.45
Q 344.15 92.4 345.35 92.4
L 345.35 92.35
Q 345.35 92.25 345.35 92.2 350.1 85.9 353.7 79.6
L 353.45 79.6 353.45 79.5
Q 352.7 79.35 352 79.35 351.95 79.35 351.85 79.35 351.25 79.35 350.65 79.35 350.6 79.35 350.55 79.35 349.9 79.35 349.25 79.35 349.15 79.35 349.1 79.35 348.5 79.35 348 79.35 347.85 79.35 347.8 79.35 347.15 79.35 346.45 79.35 346.4 79.35 346.35 79.35 345.65 79.35 345.05 79.35 344.95 79.35 344.9 79.35 344.3 79.35 343.75 79.35 343.65 79.35 343.55 79.35
M 423.85 78.9
Q 423.75 78.9 423.7 78.85 422.85 77.85 421.4 77.45 421.35 77.45 421.25 77.45 415.55 82.2 411.1 88.15 411.1 88.2 411.1 88.3
L 410.95 88.3
Q 410.95 88.2 411 88.05 411 85.55 410.75 83.45 410.75 83.4 410.7 83.3 406.45 80.5 402.45 77.45 402.4 77.45 402.35 77.45 397.4 82.25 392.15 86.8 394.5 88.6 397.15 90.15
L 397.15 90.25
Q 397.15 91.2 397.15 92.2 397.15 92.25 397.15 92.35 397.15 92.85 397.15 93.45 397.15 93.5 397.15 93.65 397.15 94.2 397.15 94.75 397.15 94.8 397.15 94.9 397.15 95.55 397.15 96.2 397.15 96.3 397.15 96.35 397.15 96.95 397.15 97.55 397.15 97.6 397.15 97.65 397.15 98.3 397.15 99 397.15 99.05 397.15 99.1 397.15 99.7 397.15 100.25 397.15 100.35 397.15 100.4 397.15 100.95 397.15 101.55 397.15 101.6 397.15 101.75 397.15 102.35 397.15 103 397.15 103.05 397.15 103.2 397.15 103.7 397.15 104.3 397.15 104.35 397.15 104.45 397.15 105.1 397.15 105.75 397.15 105.8 397.15 105.9 397.05 105.9 397 105.9 397 106.45 397 107.05 397 107.15 397 107.2 397 107.8 397 108.3 397 108.45 397 108.55 397 109.15 397 109.75 397 109.9 397 109.95 397 110.5 397 111.1 397 111.15 397 111.25 397 111.8 397 112.4 397 112.45 397 112.5 397 113.2 397 113.85 397 113.9 397 114 397 114.6 397 115.15 397 115.25 397 115.3 397 115.95 397 116.6 397 116.7 397 116.75 397 117.35 397 117.85 397 118 397 118.05 397 118.6 397 119.2 397 119.25 397 119.3 397 119.95 397 120.65 397 120.7 397 120.8 397 121.35 397 121.95 397 122 397 122.05 397 122.65 397 123.2 397 123.3 397 123.4 397 124.05 397 124.7 397 124.75 397 124.85 397 125.45 397 125.95 397 126 397 126.15 397 126.8 397.05 127.4
L 397.15 127.4
Q 403.85 127.75 410.85 127.55
L 410.85 127.4
Q 410.85 127.35 410.85 127.25 410.85 111.4 410.85 95.55 410.85 95.5 410.85 95.45 413 93.2 415.05 91 415.1 90.95 415.1 90.85 419.65 90.85 424.1 90.95 424.45 90.95 424.85 90.95
L 424.85 91
Q 424.7 91 424.7 91.1 422.85 93 420.95 94.75 420.95 94.8 420.95 94.9 420.8 94.9 420.75 94.9 420.75 109.95 420.8 125
L 420.95 125
Q 425.45 128.25 429.8 131.6 429.9 131.6 429.95 131.6 435 127 439.55 121.95
L 439.7 121.95
Q 437.2 119.95 434.55 118.1 434.5 118.1 434.5 118.05 434.5 118 434.5 117.85 434.5 106 434.5 94.1 434.5 94.05 434.5 93.95 434.5 93 434.5 92 436.4 84.65 440.45 79.35 440.5 79.3 440.5 79.25
L 440.5 79.15
Q 439.95 79.15 439.45 79.15 432 78.65 423.85 78.9
M 490.3 121.4
Q 490.35 121.35 490.35 121.3 488.25 119.35 485.9 117.65 485.85 117.65 485.85 117.55 485.85 114.7 485.85 111.9 485.95 95.7 485.7 79.9 485.6 79.9 485.5 79.9 478.7 79.9 471.95 79.9 471.95 79.95 471.95 80 471.95 96.15 471.95 112.2 471.95 112.4 471.95 112.5
L 471.95 112.85
Q 471.95 112.9 471.95 113.05 471.95 113.1 471.85 113.2 470.45 115.1 469.05 117.05 468.9 117.05 468.85 117.05 464.2 117.2 459.95 116.95 459.95 116.8 459.95 116.75 461.55 115.25 462.95 113.4
L 463.1 113.4
Q 463.3 98.65 463.05 84.45 463.05 84.3 463 84.3 458.45 80.8 454 77.25 454 77.4 453.9 77.4 449.75 81.4 445.55 85.4 445.15 85.8 444.75 86.2 445.15 86.65 445.55 87.15 447.25 89 449.2 90.7
L 449.3 90.7
Q 449.3 103.35 449.3 116.1 449.3 116.2 449.3 116.3 449.3 116.8 449.3 117.4 449.3 117.45 449.3 117.55 449.2 117.55 449.1 117.55 449.1 118.1 449.1 118.7 449.1 118.8 449.1 118.85 449.1 118.9 449.1 119.05 448.5 124.25 445.55 127.1 445 127.6 444.45 128.05 445 128.05 445.55 128.1 456.2 128.35 467.25 128.25 467.35 128.25 467.4 128.25 469.6 124.3 471.75 120.4 471.75 120.35 471.75 120.3 472.1 122.05 472 124.15
L 472.1 124.15
Q 476.35 127.45 480.75 130.55 480.8 130.55 480.8 130.7 485.55 126 490.3 121.4
M 495.6 89.5
Q 495.6 89.55 495.6 89.65 495.35 89.95 495.55 90.7
L 495.6 90.7
Q 495.55 91.4 495.85 91.95 499.4 100.1 509.35 101.95 503.2 107.55 498.65 114.9 497.1 117.45 493.6 118.2 493.2 118.2 492.8 118.2 492.75 118.2 492.65 118.2 491.75 118 491.55 118.4 491.55 118.45 491.65 118.5 494.5 124.7 497.4 130.95 499.65 130.9 501.35 130.3 510.2 127.35 512 117.45 513.65 108.7 520.85 105.6 520.85 105.7 520.9 105.7 523.05 113.25 528.05 117.95 528.05 118 528.05 118.05 521.6 118.05 515.4 118.3 514.8 118.3 514.25 118.3
L 514.25 118.4
Q 514.25 118.45 514.25 118.5 517.55 123.3 520.75 128.25
L 520.75 128.35
Q 531.3 128.45 541.7 128.3 542.95 128.25 544.2 128.25 542.9 127.25 541.7 126.15 536.8 121.55 533.8 115.1 532.45 112.2 532 108.45 532 108.4 532 108.3 532 107.95 532 107.55 531.95 107.55 531.85 107.55 531.85 107.45 531.85 107.4 531.85 107.3 531.85 107.25 531.85 106.85 531.85 106.4
L 531.75 106.4 531.75 106.35
Q 531.75 105.9 531.75 105.5 531.75 105.45 531.75 105.35 531.75 104.65 531.75 103.95 531.75 103.9 531.75 103.85 531.75 103.45 531.75 103.1
L 531.85 103.1
Q 531.85 102.65 531.85 102.2 532.35 96.65 534.5 92.95 537.45 87.85 541.7 84 543.6 82.3 545.7 80.85 545.8 80.75 545.9 80.7
L 545.95 80.7
Q 546.05 80.6 546.1 80.5 545.9 80.5 545.7 80.5 543.7 80.5 541.7 80.5 533.45 80.5 525.1 80.55
L 525.1 80.6
Q 523.65 83.05 522.45 85.8
L 522.4 85.8
Q 514.55 82.25 506.85 78.6 506.8 78.6 506.75 78.6 497.35 80.2 495.6 89.5
M 508.2 92
Q 509.35 87.5 514.25 86.75
L 514.3 86.8
Q 517.6 88.3 520.95 89.7 520.3 92.25 519.75 95.05 519.75 95.1 519.75 95.15 519.6 95.45 519.65 96 519.65 96.05 519.65 96.15 519.65 96.3 519.65 96.45 519.65 96.55 519.65 96.6 519.45 96.9 519.5 97.45 519.6 97.45 519.6 97.55 519.5 98.2 519.6 98.85 519.6 98.9 519.6 99 519.6 99.05 519.5 99.1 519.45 99.65 519.65 99.9 511.7 99.85 508.2 93.4 508.2 93.3 508.2 93.25
L 508.2 93.2
Q 508.2 92.65 508.2 92.1
L 508.2 92 Z"/>

<path fill="#836A9C" stroke="none" d="
M 178.95 47.3
Q 178.7 47.3 178.6 47.4 176.95 49.25 175.25 51
L 159.3 64.8 178 59.65
Q 178.4 60.2 179.1 62.85 179.8 65.4 179.9 65.55
L 195.25 61.7 195.35 79.9
Q 195.25 79.9 195.1 85.6 197.2 85 199.1 84.45 211.05 81 215.3 79.75 217.65 79.05 217.6 79 209.65 62.45 201.15 46.35 200.95 46.35 200.8 46.45 192.55 53.3 183.7 59.6 183.7 59.35 183.6 59.15 181.55 52.95 178.95 47.3 Z"/>
</g>

<g id="_______1_0_Layer5_0_FILL">
<path fill="#866D9E" stroke="none" d="
M 106.9 8.15
Q 103.95 4.7 102.65 1.9
L 91.15 1.65 82.2 17.4 73.1 1.85 31.15 2.35 27.85 6.95
Q 27.3 7.65 26.75 8.25 26.05 9.05 25.3 9.85
L 20.55 14.1 14.45 18.25 13.35 18.85
Q 12.8 19.15 12.2 19.4 8.7 21.2 4.7 22.75
L 4.7 156.2
Q 5.05 156.35 5.45 156.5
L 11.65 159.15
Q 11.95 159.35 12.15 159.45 12.5 159.6 12.8 159.8
L 19.6 164.15
Q 20.1 164.5 20.55 164.8 20.9 165.1 21.25 165.4
L 25.75 169.6
Q 26.3 170.15 26.8 170.7
L 31.15 176.6 102.45 176.65 106.85 170.7
Q 109.7 167.45 113.05 164.9 116.75 161.9 121.4 159.5 124.95 157.7 128.9 156.3
L 128.85 22.65
Q 125.4 21.55 121.4 19.4 116.6 16.9 113.05 14.1 109.6 11.25 106.9 8.15 Z"/>
</g>

<g id="_______1_0_Layer4_0_FILL">
<path fill="#424C17" stroke="none" d="
M 86.85 9.75
L 86.55 9.75 85 12.9 84.75 13.3 84.75 13.3 82.1 17.75 77.55 10.45 77.55 10.3 35 10.3 34.6 11.2 32.75 14.35
Q 29.95 18.25 26.2 21.25
L 26.15 21.25
Q 22.35 24.5 17.2 26.75
L 11.75 28.95 11.75 149.85 17.2 151.95
Q 22.6 154.55 26.2 157.5 30.05 160.75 32.75 164.5
L 32.75 164.45 34.6 167.6 35 168.5 98.55 168.5 100.95 164.45 100.95 164.5
Q 103.55 160.8 107.4 157.5 111.15 154.5 116.4 151.95 118.9 150.75 120.75 150.15
L 121.85 149.9 121.85 28.95 120.75 28.55
Q 118.9 27.95 116.4 26.75 111.2 24.5 107.4 21.25 103.6 18.15 100.95 14.35
L 98.45 10.3 86.85 9.75 Z"/>
</g>

<g id="_______1_0_Layer3_0_FILL">
<path fill="#000000" stroke="none" d="
M 107.05 2.75
Q 106.35 1.55 105.75 0.25
L 89.15 0.2 82.65 13.9 76.2 0.4 27.85 0
Q 18.6 15.8 0.15 20.3
L 0.15 156.2 0 157.5
Q 20.15 162.9 26.8 177.9
L 105.75 177.9
Q 118.6 161.2 133.5 157.65
L 133.35 156.2 133.2 21
Q 114.7 16.25 107.05 2.75
M 113.05 15.85
Q 116.6 18.6 121.4 21.05 125.4 23.15 128.85 24.2
L 128.9 154.65
Q 124.95 156 121.4 157.75 116.75 160.1 113.05 163.05 109.7 165.55 106.85 168.7
L 102.45 174.5 31.15 174.45 26.8 168.7
Q 26.3 168.15 25.75 167.65
L 21.25 163.55
Q 20.9 163.25 20.55 162.95 20.1 162.65 19.6 162.3
L 12.8 158.05
Q 12.5 157.85 12.15 157.7 11.95 157.6 11.65 157.45
L 5.45 154.85
Q 5.05 154.7 4.7 154.55
L 4.7 24.25
Q 8.65 22.8 12.15 21.05 12.7552734375 20.77265625 13.3 20.45
L 14.45 19.9 20.55 15.85 25.3 11.7
Q 26 10.95 26.7 10.15 27.25 9.55 27.85 8.9
L 31.15 4.4 73.1 3.85 73.1 3.9 82.15 19.85 91.15 3.7 102.65 3.95
Q 103.95 6.7 106.9 10.05 109.6 13.1 113.05 15.85 Z"/>
</g>

<g id="_______1_0_Layer2_0_FILL">
<path fill="#818E46" stroke="none" d="
M 105.45 23.55
L 105.5 23.55
Q 103 21.5 100.9 19.1 99.65 17.65 98.55 16.05
L 98.55 16 98.45 16 96.85 13.3 85.75 13.3 82.15 19.85 78.4 13.3 36.85 13.3 35.1 16.05
Q 32.05 20.25 28.1 23.55 24 27 18.3 29.5
L 18.55 29.5 14.7 31.1 14.7 147.75 18.3 149.3 18.55 149.3
Q 24.1 152 28.1 155.2 32.15 158.55 35.1 162.8
L 36.85 165.55 96.75 165.55 98.55 162.8
Q 99.65 161.15 100.9 159.7 102.95 157.25 105.5 155.2 109.4 152 115.1 149.3
L 118.85 147.7 118.85 31.1 115.1 29.5
Q 109.5 26.9 105.45 23.55 Z"/>
</g>

<g id="_______1_0_Layer1_0_FILL">
<path fill="#6F7B37" stroke="none" d="
M 113.05 116.8
L 112.7 117.25 111.55 128.05 111.6 137.05 112.7 145.6 113.05 146.05
Q 113.45 146.05 113.45 145.6
L 114.65 131.4 113.45 117.25
Q 113.45 116.8 113.05 116.8
M 38.5 144.05
Q 38.1 144.05 38.1 144.3
L 37.2 152.1 38.1 160 38.5 160.25
Q 38.85 160.25 38.85 160
L 39.8 152.1 38.85 144.3
Q 38.85 144.05 38.5 144.05
M 18.9 129.9
Q 18.55 129.9 18.55 130.15
L 17.6 138 18.55 145.9 18.9 146.05
Q 19.25 146.05 19.25 145.9
L 20.15 138 19.25 130.15
Q 19.25 129.9 18.9 129.9
M 21.9 33.35
L 20.75 48.55 22.2 73.3 22.65 73.75
Q 23.05 73.75 23.05 73.3
L 23.85 45.4 22.75 33.35 22.25 32.95 21.9 33.35
M 37 18.85
Q 36.55 18.85 36.55 19.3
L 35.45 33.5 36.55 47.7 37 48.1
Q 37.4 48.1 37.4 47.7
L 38.5 33.5 37.4 19.3
Q 37.4 18.85 37 18.85 Z"/>
</g>

<g id="_______1_0_Layer0_0_FILL">
<path fill="#000000" stroke="none" d="
M 106.8 67
Q 108.4 68.35 109.65 69.95 110.3 71 110.95 72 112.6 75 113.05 78.5 114.05 84.35 111.45 89.95 111.15 90.4 110.95 91 108.65 95.6 104.85 97.55 102.85 98.45 100.9 98.5 99.55 98.5 98.2 98.05 98.1 98 97.95 97.9 97 97.5 96 96.9 94.15 95.6 92.75 93.95 90.8 91.8 90.05 89.1 90.25 89.4 90.5 89.7 92.3 92.1 94.9 92.1 97.4 92.1 99.25 89.7 100.55 88.05 100.9 85.75 101.05 84.95 101.05 84.1 101.05 83.3 100.9 82.55 100.55 80.25 99.25 78.5 97.3 76.15 94.9 76.15 92.35 76.15 90.5 78.5 90.45 78.55 90.3 78.75 89.25 80.15 89 81.85 88.4 83.55 88.25 85.75 87.8 92.5 92.75 97.85 93.8 99 95.05 100 95.9 100.65 96.7 101.2 97.3 101.5 97.95 101.8 99.4 102.4 100.9 102.5 103.65 102.7 106.55 101.2 109 99.95 110.95 97.85 113.85 94.9 115.85 90.35 116.5 88.75 116.95 87.25 119.05 80.45 117.65 73.1 117.35 71.7 116.95 70.35 115.2 64.35 110.9 59.3 109.1 57.2 106.8 55.15 103.75 52.45 100.9 50.65 92.45 45.25 85.9 47.8 84.05 48.5 82.2 49.95 80.25 51.6 74.9 60.2 71.25 66.35 67.65 72.85 66.6 74.65 65.7 76.5
L 64.9 75.15 60.15 66.7 51.35 46.4
Q 46.9 51.65 42.6 59.7
L 39.8 64.95
Q 38.45 67.5 38 68.95 39.1 70.65 41.45 75.15 41.8 76 42.35 76.9 43.85 80 45.75 83.65 47.2 86.5 52.85 97.15
L 53.6 98.4
Q 50.75 103.25 50.75 103.3
L 49.3 106.2
Q 44.8 115.15 41.95 118.7 41.75 118.95 41.5 119.15 41.5 119.2 41.5 119.3 38.8 122.45 36.3 123.7 31.75 125.95 27.4 122.15 25.85 120.75 24.65 119.15 23.85 118.2 23.35 117.1 21.6 114.15 21.1 110.6 20.15 104.75 22.8 99.25 23.05 98.7 23.35 98.15 25.6 93.5 29.4 91.6 31.75 90.45 33.85 90.65 31.1 91.4 29.05 94.2 26.2 97.9 26.2 103.1 26.2 108.45 29.05 112.2 31.8 115.85 35.95 115.85 39.95 115.85 42.8 112.2 43.8 110.95 44.4 109.55 45.7 107 45.95 103.35 46.4 96.65 41.5 91.25 40.45 90.15 39.2 89 38.35 88.45 37.55 87.9 36.85 87.6 36.3 87.3 32.15 85.65 27.65 88 25.25 89.25 23.35 91.25 20.35 94.2 18.4 98.85 17.7 100.35 17.2 101.85 15.1 108.7 16.55 116 16.8 117.45 17.2 118.75 19 124.8 23.4 129.9 25.1 132 27.4 133.95 39.6 144.75 48.25 141.4 50.15 140.6 52 139.2 56.65 135.5 60.9 127.05 61.85 124.9 61.95 124.8
L 65.05 119.2 69.3 126.7
Q 72.2 131.8 74.95 135.2 79.8 141.15 84.25 142.2 92.1 144 100.9 132.75 102.35 130.9 103.8 128.7 104.3 127.95 104.85 127.35 103.25 126.45 100.9 124.75 98.75 123.2 96 120.9 92.15 117.85 87.35 113.35 85.95 111.85 84.2 109.3 83.35 108.15 80.55 103.7 77.85 99.35 76.95 97.7
L 79.25 93.35
Q 84.6 83.5 84.85 82.95 89.5 74 92.35 70.45 92.5 70.2 92.65 69.95 92.75 69.9 92.75 69.8 95.45 66.65 97.95 65.5 99.45 64.75 100.9 64.65 103.95 64.4 106.8 67
M 92.6 60.05
L 95.05 60.9
Q 94.05 61.4 92.75 62.75 90.8 65.2 87.95 69.95 86.25 72.8 84.4 76.4 83.9 77.2 80.1 84.1 79.45 85.3 74.6 92.85
L 74.45 92.6
Q 74.2 92.3 74.1 92.35
L 72.25 88.95
Q 75.2 84.15 76.2 82.2 82 71.4 82.8 69.95 83.25 69.1 83.75 68.2 85.9 64.1 87.3 62.1 88.15 60.75 88.65 60.35 90.05 59.5 92.6 60.05
M 54.95 73.3
Q 52.7 68.95 51.95 67.9 51.95 67 53.6 64.7
L 55.25 62.45
Q 56.05 64.85 57.35 68.05 58.25 70 58.85 71.3 58.85 71.4 60.9 75.15 61.25 75.8 61.55 76.6 62.1 77.65 62.85 79
L 74.85 100.65
Q 77.45 105.35 80 109.4
L 81.55 111.75
Q 86.1 118.75 88.85 121.65 90.35 123.15 91.35 123.5
L 89.1 124.95
Q 86.7 126.25 85.2 125.5 84.45 125 83 122.9 80.9 120 77.45 114.35
L 72.4 105.6
Q 71.7 103.95 66.7 94.55 61.55 85 60.7 83.75
L 58.45 79.85
Q 56.8 76.8 55.9 75.15 55.05 73.5 54.95 73.3
M 55.55 102.25
L 57.95 107.1 51.45 119.15
Q 50.95 120.05 50.5 120.9 48.25 125 46.95 127.05 46.1 128.35 45.5 128.7 44.15 129.7 41.55 129.05
L 39.25 128.25
Q 40.2 127.8 41.5 126.25 43.45 123.95 46.35 119.15 48 116.4 49.85 112.7
L 55.55 102.25 Z"/>
</g>
</defs>

<g id="_____1"/>

<g id="Layer_1">
<g transform="matrix( 1, 0, 0, 1, 0,-0.1) ">
<g transform="matrix( 1, 0, 0, 1, 0,0) ">
<use xlink:href="#_______2_0_Layer0_0_FILL"/>
</g>

<g transform="matrix( 1, 0, 0, 1, 0,0) ">
<g id="_____4">
<g transform="matrix( 1, 0, 0, 1, 0,0) ">
<use xlink:href="#_______1_0_Layer5_0_FILL"/>
</g>
</g>

<g transform="matrix( 1, 0, 0, 1, 0,0) ">
<use xlink:href="#_______1_0_Layer4_0_FILL"/>
</g>

<g id="_____5">
<g transform="matrix( 1, 0, 0, 1, 0,0) ">
<use xlink:href="#_______1_0_Layer3_0_FILL"/>
</g>
</g>

<g id="_____3">
<g transform="matrix( 1, 0, 0, 1, 0,0) ">
<use xlink:href="#_______1_0_Layer2_0_FILL"/>
</g>
</g>

<g id="_____6">
<g transform="matrix( 1, 0, 0, 1, 0,0) ">
<use xlink:href="#_______1_0_Layer1_0_FILL"/>
</g>
</g>

<g id="_____2">
<g transform="matrix( 1, 0, 0, 1, 0,0) ">
<use xlink:href="#_______1_0_Layer0_0_FILL"/>
</g>
</g>
</g>
</g>
</g>
</svg>
