
<svg xmlns="http://www.w3.org/2000/svg" version="1.1" xmlns:xlink="http://www.w3.org/1999/xlink" preserveAspectRatio="none" x="0px" y="0px" width="551px" height="181px" viewBox="0 0 551 181">
<defs>
<g id="Layer1_0_FILL">
<path fill="#000000" stroke="none" d="
M 89.15 1.5
L 82.65 15.2 76.2 1.7 27.85 1.3
Q 18.6 17.1 0.15 21.6
L 0.15 157.5 0 158.8
Q 20.15 164.2 26.8 179.2
L 105.75 179.2
Q 118.6 162.5 133.5 158.95
L 133.35 157.5 133.2 22.3
Q 113.05 17.15 105.75 1.55
L 89.15 1.5
M 102.65 5.25
Q 103.95 8 106.9 11.35 109.6 14.4 113.05 17.15 116.6 19.9 121.4 22.35 125.4 24.45 128.85 25.5
L 128.9 155.95
Q 124.95 157.3 121.4 159.05 116.75 161.4 113.05 164.35 109.7 166.85 106.85 170
L 102.45 175.8 31.15 175.75 26.8 170
Q 26.3 169.45 25.75 168.95
L 21.25 164.85
Q 20.9 164.55 20.55 164.25 20.1 163.95 19.6 163.6
L 12.8 159.35
Q 12.5 159.15 12.15 159 11.95 158.9 11.65 158.75
L 5.45 156.15
Q 5.05 156 4.7 155.85
L 4.7 25.6 4.7 25.55
Q 8.65 24.1 12.15 22.35 13.325 21.7875 14.45 21.2 17.5 19.175 20.55 17.15 22.9125 15.0625 25.25 12.95 26 12.225 26.7 11.45 27.268359375 10.83125 27.85 10.15 29.5 7.9375 31.15 5.7
L 71.8 5.2 73.1 5.15 73.1 5.2 76.75 11.6 78.4 14.6 82.15 21.15 85.75 14.6 86 14.2 87.55 11.05 91.15 5 102.65 5.25
M 110.9 60.6
Q 109.1 58.5 106.8 56.45 94.65 45.7 85.9 49.1 84.05 49.8 82.2 51.25 80.25 52.9 74.9 61.5 71.25 67.65 67.65 74.15 66.6 75.95 65.7 77.8
L 64.9 76.45 60.15 68 51.35 47.7
Q 46.9 52.95 42.6 61
L 39.8 66.25
Q 38.45 68.8 38 70.25 39.1 71.95 41.45 76.45 41.8 77.3 42.35 78.2 43.85 81.3 45.75 84.95 47.2 87.8 52.85 98.45
L 53.6 99.7
Q 50.75 104.55 50.75 104.6
L 49.3 107.5
Q 44.8 116.45 41.95 120 41.75 120.25 41.5 120.45 41.5 120.5 41.5 120.6 38.8 123.75 36.3 125 31.75 127.25 27.4 123.45 25.85 122.05 24.65 120.45 23.85 119.5 23.35 118.4 21.6 115.45 21.1 111.9 20.15 106.05 22.8 100.55 23.05 100 23.35 99.45 25.6 94.8 29.4 92.9 31.75 91.75 33.85 91.95 31.1 92.7 29.05 95.5 26.2 99.2 26.2 104.4 26.2 109.75 29.05 113.5 31.8 117.15 35.95 117.15 39.95 117.15 42.8 113.5 43.8 112.25 44.4 110.85 45.7 108.3 45.95 104.65 46.4 97.95 41.5 92.55 40.45 91.45 39.2 90.3 38.35 89.75 37.55 89.2 36.85 88.9 36.3 88.6 32.15 86.95 27.65 89.3 25.25 90.55 23.35 92.55 20.35 95.5 18.4 100.15 17.7 101.65 17.2 103.15 15.1 110 16.55 117.3 16.8 118.75 17.2 120.05 19 126.1 23.4 131.2 25.1 133.3 27.4 135.25 39.6 146.05 48.25 142.7 50.15 141.9 52 140.5 56.65 136.8 60.9 128.35 61.85 126.2 61.95 126.1
L 65.05 120.5 69.3 128
Q 72.2 133.1 74.95 136.5 79.8 142.45 84.25 143.5 93.35 145.6 103.8 130 104.3 129.25 104.85 128.65 101.75 126.95 96 122.2 92.15 119.15 87.35 114.65 85.95 113.15 84.2 110.6 83.35 109.45 80.55 105 77.85 100.65 76.95 99
L 79.25 94.65
Q 84.6 84.8 84.85 84.25 89.5 75.3 92.35 71.75 92.5 71.5 92.65 71.25 92.75 71.2 92.75 71.1 95.45 67.95 97.95 66.8 102.55 64.45 106.8 68.3 108.4 69.65 109.65 71.25 110.3 72.3 110.95 73.3 112.6 76.3 113.05 79.8 114.05 85.65 111.45 91.25 111.15 91.7 110.95 92.3 108.65 96.9 104.85 98.85 101.45 100.4 98.2 99.35 98.1 99.3 97.95 99.2 97 98.8 96 98.2 94.15 96.9 92.75 95.25 90.8 93.1 90.05 90.4 90.25 90.7 90.5 91 92.3 93.4 94.9 93.4 97.4 93.4 99.25 91 100.95 88.8 101.05 85.4 100.95 82.15 99.25 79.8 97.3 77.45 94.9 77.45 92.35 77.45 90.5 79.8 90.45 79.85 90.3 80.05 89.25 81.45 89 83.15 88.4 84.85 88.25 87.05 87.8 93.8 92.75 99.15 93.8 100.3 95.05 101.3 95.9 101.95 96.7 102.5 97.3 102.8 97.95 103.1 102.05 104.8 106.55 102.5 109 101.25 110.95 99.15 113.85 96.2 115.85 91.65 116.5 90.05 116.95 88.55 119.05 81.75 117.65 74.4 117.35 73 116.95 71.65 115.2 65.65 110.9 60.6
M 82.8 71.25
Q 83.25 70.4 83.75 69.5 85.9 65.4 87.3 63.4 88.15 62.05 88.65 61.65 90.05 60.8 92.6 61.35
L 95.05 62.2
Q 94.05 62.7 92.75 64.05 90.8 66.5 87.95 71.25 86.25 74.1 84.4 77.7 83.9 78.5 80.1 85.4 79.45 86.6 74.6 94.15
L 74.45 93.9
Q 74.2 93.6 74.1 93.65
L 72.25 90.25
Q 75.2 85.45 76.2 83.5 82 72.7 82.8 71.25
M 53.6 66
L 55.25 63.75
Q 56.05 66.15 57.35 69.35 58.25 71.3 58.85 72.6 58.85 72.7 60.9 76.45 61.25 77.1 61.55 77.9 62.1 78.95 62.85 80.3
L 74.85 101.95
Q 77.45 106.65 80 110.7
L 81.55 113.05
Q 86.1 120.05 88.85 122.95 90.35 124.45 91.35 124.8
L 89.1 126.25
Q 86.7 127.55 85.2 126.8 84.45 126.3 83 124.2 80.9 121.3 77.45 115.65
L 72.4 106.9
Q 71.7 105.25 66.7 95.85 61.55 86.3 60.7 85.05
L 58.45 81.15
Q 56.8 78.1 55.9 76.45 55.05 74.8 54.95 74.6 52.7 70.25 51.95 69.2 51.95 68.3 53.6 66
M 55.55 103.55
L 57.95 108.4 51.45 120.45
Q 50.95 121.35 50.5 122.2 48.25 126.3 46.95 128.35 46.1 129.65 45.5 130 44.15 131 41.55 130.35
L 39.25 129.55
Q 40.2 129.1 41.5 127.55 43.45 125.25 46.35 120.45 48 117.7 49.85 114
L 55.55 103.55
M 188.45 109.4
L 188.45 109.35
Q 180.1 109.25 171.7 109.25
L 171.65 109.25
Q 170.8 108.25 169.3 107.85
L 169.2 107.85
Q 163.55 112.6 158.95 118.35 158.95 118.4 158.95 118.5
L 144.85 134.15
Q 144.85 140.2 144.85 144.25 144.85 146.8 144.8 154.2 144.75 156.2 145.1 157.75 151.65 158.1 158.65 157.9
L 158.65 157.75
Q 158.95 156.85 158.8 155.55 158.8 155.5 158.8 155.4 158.8 155.25 158.8 155.2 158.8 154.05 158.8 152.8 158.8 152.7 158.8 152.65 158.8 152.05 158.8 151.55 158.8 151.4 158.8 151.3 158.8 150.75 158.8 150.2 158.8 150.15 158.8 150 158.8 149.35 158.8 148.55 158.8 148.5 158.8 148.45 158.8 147.85 158.8 147.3 158.8 147.2 158.8 147.1 158.8 146.45 158.8 145.85 158.8 145.75 158.8 145.65 158.8 145 158.8 144.35
L 158.8 144.25
Q 158.8 143.65 158.8 143.1 158.8 143.05 158.8 142.9 158.8 142.4 158.8 141.8 158.8 141.7 158.8 141.65 158.8 141.05 158.8 140.45 158.8 140.4 158.8 140.35 158.8 139.7 158.8 139.05 158.8 138.95 158.8 138.9 158.8 138.3 158.8 137.8 158.8 137.65 158.8 137.6 158.8 136.9 158.8 136.35 158.8 136.2 158.8 136.1 158.8 135.55 158.8 135 158.8 134.95 158.8 134.8 158.8 134.3 158.8 133.7 158.8 133.6 158.8 133.55 158.8 133 158.8 132.45 158.8 132.3 158.8 132.25 158.8 131.65 158.8 131.15 158.8 131.05 158.8 130.9 158.8 130.4 158.8 129.8 158.8 129.75 158.8 129.65 158.8 129.1 158.8 128.55 158.8 128.45 158.8 128.35 158.8 127.8 158.8 127.25 158.8 127.2 158.8 127.05 158.8 126.55 158.8 125.95 158.8 125.85 158.8 125.8 161 123.7 162.9 121.35 162.9 121.25 163.05 121.25 167.5 121.25 172.05 121.35 172.4 121.35 172.7 121.35
L 172.7 121.4
Q 172.65 121.4 172.55 121.45 170.75 123.45 168.7 125.25 168.7 125.4 168.7 125.45 168.55 125.45 168.5 125.45 168.5 140.35 168.55 155.2
L 168.7 155.2
Q 173.15 158.75 177.85 162.05 177.9 162.1 177.9 162.2 182.65 157.4 187.3 152.5 187.4 152.45 187.45 152.45 185.2 150.3 182.45 148.5
L 182.45 148.45
Q 182.45 148.35 182.45 148.25 182.45 136.4 182.45 124.45 182.45 124.4 182.45 124.35 182.45 123.35 182.45 122.35 184.3 114.85 188.35 109.55 188.45 109.55 188.45 109.4
M 237.6 131.4
L 237.6 131.45
Q 237.6 131.8 237.6 132.1 237.6 132.15 237.6 132.25 237.6 132.9 237.6 133.55 237.6 133.6 237.6 133.7 237.6 134.3 237.6 134.85 237.6 134.95 237.6 135 237.6 135.65 237.6 136.35 237.6 136.4 237.6 136.45 237.5 136.45 237.4 136.45 237.4 137.05 237.4 137.6 237.4 137.7 237.4 137.8 237.4 138.3 237.4 138.9 237.4 138.95 237.4 139.1 237.4 139.7 237.4 140.35 237.4 140.4 237.4 140.55 237.4 141.05 237.4 141.65 237.4 141.7 237.4 141.8 237.4 142.4 237.4 142.95 237.4 143.05 237.4 143.1 237.4 143.75 237.4 144.4 237.4 144.5 237.4 144.55 237.4 145.15 237.4 145.65 237.4 145.8 237.4 145.85 237.4 146.5 237.4 147.1 237.4 147.25 237.4 147.3 237.4 147.85 237.4 148.45 237.4 148.5 237.4 148.6 237.4 149.15 237.4 149.75 237.4 149.8 237.4 149.9 237.4 150.55 237.4 151.2 237.4 151.25 237.4 151.3 237.4 151.9 237.4 152.5 237.4 152.55 237.4 152.65 237.4 153.25 237.4 153.75 237.4 153.8 237.4 153.95 237.4 154.65 237.4 155.2 237.4 155.35 237.4 155.4 237.4 155.95 237.4 156.5 237.4 156.6 237.4 156.65 237.4 157.3 237.5 158
L 237.6 158
Q 244.25 158.25 251.35 158.05
L 251.35 158
Q 251.35 157.9 251.35 157.85 251.35 142.4 251.35 126.9 251.35 126.85 251.35 126.8 254.9 123.9 258.3 120.8 258.4 120.8 258.45 120.8 259.75 121.35 260.75 122.2 260.8 122.25 260.9 122.25 260.9 138.3 260.75 154.4 260.75 156.4 261 158 261.15 158 261.3 158 267.75 158.25 274.6 158.05
L 274.6 158
Q 274.9 157.05 274.75 155.75 274.75 155.65 274.75 155.55 274.75 155.5 274.75 155.4 274.75 154.2 274.75 152.95 274.75 152.9 274.75 152.8 274.75 152.25 274.75 151.65 274.75 151.6 274.75 151.55 274.75 150.95 274.75 150.4 274.75 150.3 274.75 150.2 274.75 149.45 274.75 148.75 274.75 148.7 274.75 148.6 274.75 148.05 274.75 147.45 274.75 147.35 274.75 147.3 274.75 146.65 274.75 146 274.75 145.95 274.75 145.85 274.75 145.2 274.75 144.55 274.75 144.5 274.75 144.4 274.75 143.85 274.75 143.25 274.75 143.15 274.75 143.1 274.75 142.5 274.75 142 274.75 141.9 274.75 141.8 274.75 141.25 274.75 140.65 274.75 140.6 274.75 140.55 274.75 139.9 274.75 139.2 274.75 139.15 274.75 139.1 274.75 138.5 274.75 137.9 274.75 137.85 274.75 137.8 274.75 137.1 274.75 136.45 274.75 136.4 274.75 136.35 274.75 135.75 274.75 135.2 274.75 135.1 274.75 135 274.75 134.4 274.75 133.9 274.75 133.85 274.75 133.7 274.75 133.15 274.75 132.6 274.75 132.5 274.75 132.45 274.75 131.85 274.75 131.3 274.75 131.2 274.75 131.15 274.75 130.55 274.75 130 274.75 129.95 274.75 129.8 274.75 129.3 274.75 128.7 274.75 128.65 274.75 128.55 274.75 127.95 274.75 127.45 274.75 127.3 274.75 127.25 274.75 126.65 274.75 126.1 274.75 126.05 274.75 125.95 276.95 123.85 278.85 121.45 278.9 121.45 278.95 121.45 283.5 121.45 288 121.5 288.35 121.5 288.7 121.5
L 288.7 121.6
Q 288.6 121.6 288.6 121.65 286.7 123.6 284.65 125.45 284.65 125.55 284.65 125.65 284.55 125.65 284.5 125.65 284.5 140.55 284.55 155.4
L 284.65 155.4
Q 289.1 158.9 293.85 162.25
L 293.85 162.4
Q 298.65 157.6 303.25 152.7 303.3 152.65 303.4 152.65 301.15 150.45 298.45 148.7 298.35 148.7 298.35 148.6 298.35 148.5 298.35 148.45 298.35 136.5 298.35 124.7 298.35 124.6 298.35 124.45 298.35 123.5 298.35 122.6 300.3 115.05 304.3 109.75 304.4 109.65 304.4 109.6
L 304.4 109.55
Q 296 109.5 287.7 109.5 287.65 109.5 287.6 109.4 286.75 108.4 285.3 108 285.25 108 285.15 108 279.5 112.75 274.95 118.5 274.95 118.65 274.95 118.7
L 274.85 118.7
Q 274.85 118.65 274.9 118.5 274.9 116.4 274.6 114.6 274.55 114.6 274.5 114.6 270.05 111.25 265.55 108 265.5 108 265.45 108 264.3 109.05 261.3 111.6 254.4 117.45 237.6 131.4
M 183.8 70.35
Q 183.8 70.55 183.7 70.7 169.05 86.4 153.05 100.85
L 164.75 98
Q 164.75 98.1 164.8 98.15
L 180.2 94.3 181.15 100.2
Q 194.4 97.45 195.6 96.8
L 193.7 123.7
Q 189.8 129.3 187.85 136.8 187.85 137.3 187.85 137.8 187.85 137.85 187.85 137.9 187.75 137.9 187.65 137.9 187.65 138.75 187.65 139.55 187.65 139.6 187.65 139.7 187.65 140.35 187.75 141
L 187.85 141
Q 190.2 154.65 201.2 159.85 203.25 160.8 205.15 161.85 210.1 157.05 214.85 152 214.85 151.9 214.85 151.85 215.15 153.55 215.1 155.75
L 215.15 155.75
Q 220.05 158.95 224.75 162.3 224.85 162.4 224.9 162.4 229.5 157.2 234.05 152 234.1 151.9 234.1 151.85 231.65 150.05 229.1 148.35
L 229.1 148.3
Q 229.1 148.15 229.1 148.1 229.1 137.05 229.1 125.95 229.1 125.85 229.1 125.8 229.1 125.2 229.1 124.7 229.1 124.6 229.1 124.45 229.1 123.7 229.1 122.9 231.05 115.2 235.3 109.8
L 235.4 109.8 235.4 109.65
Q 234.5 109.65 233.55 109.65 231.45 109.6 229.3 109.5 216.65 89.9 205.55 68.9 205.55 69.15 205.4 69.25 197.5 76 189.95 83.1 189.7 83.1 189.7 83 187.35 76 183.8 70.35
M 163.2 94.45
L 179.15 80.65
Q 180.85 78.9 182.5 77.05 182.6 76.95 182.85 76.95 185.45 82.6 187.5 88.8 187.6 89 187.6 89.25 196.45 82.95 204.7 76.1 204.85 76 205.05 76 213.55 92.1 221.5 108.65 221.55 108.7 219.2 109.4 214.95 110.65 203 114.1 201.1 114.65 199 115.25 199.15 109.55 199.25 109.55
L 199.15 91.35 183.8 95.2
Q 183.7 95.05 183 92.5 182.3 89.85 181.9 89.3
L 163.2 94.45
M 218.7 122.25
Q 218.85 122.25 218.9 122.25 218.9 122.3 218.85 122.35 217 124.55 215.15 126.8 215.15 126.85 215.15 126.9 215.1 126.9 215 126.9 215 135.25 215 143.55 215 143.7 215 143.75 215 143.85 214.95 143.9 213.75 145 212.75 146.35 212.65 146.35 212.6 146.35 201.85 144.8 199.95 134.55 199.95 134.4 199.95 134.35 199.95 133.85 199.95 133.25 199.95 133.15 199.95 133.1 199.95 132 199.95 131 199.95 130.85 199.95 130.8 199.95 130.45 199.95 130.15 201.15 125.65 203.5 122.35 203.5 122.3 203.5 122.25 211.15 122.25 218.7 122.25
M 357.35 109.15
Q 356.6 109 355.9 109 355.85 109 355.75 109 355.15 109 354.55 109 354.5 109 354.45 109 353.8 109 353.15 109 353.05 109 353 109 352.4 109 351.9 109 351.75 109 351.7 109 351.05 109 350.35 109 350.3 109 350.25 109 349.55 109 348.95 109 348.85 109 348.8 109 348.2 109 347.65 109 347.55 109 347.45 109 346.8 109 346.2 109 346.1 109 346 109 345.45 109 344.9 109 344.85 109 344.7 109 344.1 109 343.45 109 343.4 109 343.25 109 342.75 109 342.15 109 342.05 109 342 109 341.35 109 340.7 109 340.65 109 340.55 109 339.9 109 339.25 109 339.2 109 339.05 109 338.55 109 337.95 109 337.85 109 337.8 109 337.15 109 336.45 109 336.4 109 336.35 109 335.75 109 335.15 109 335.1 109 335.05 109 334.35 109 333.75 109 333.65 109 333.6 109 333.05 109 332.5 109 332.35 109 332.25 109 331.6 109 330.95 109 330.9 109 330.8 109 330.15 109 329.5 109 329.45 109 329.4 109 328.8 109 328.25 109 328.15 109 328.05 109 327.4 109 326.8 109 326.7 109 326.6 109 326.05 109 325.5 109 325.45 109 325.3 109 324.7 109 324.05 109 323.95 109 323.85 109 323.2 109 322.6 109 322.45 109 322.4 109 321.8 109 321.25 109
L 321.15 109
Q 320.5 109 319.85 109 319.75 109 319.65 109 319.1 109 318.5 109 318.45 109 318.4 109 317.65 109 316.95 109 316.95 108.95 316.9 108.9 315.95 107.7 314.5 107.1
L 314.5 107.05
Q 313.8 106.9 313.05 106.9 313.05 107.05 313.05 107.1
L 312.95 107.1
Q 307.35 113.9 302.85 121.65 302.85 121.75 302.85 121.85 306.2 122 309.65 122.05 311.35 122.1 313.05 122.1 320.15 122.3 327.6 122.1 327.65 122.1 327.75 122.1 327.75 122.25 327.75 122.3 324.5 127.25 319.3 129.8 319.25 129.8 319.15 129.8 319.15 145.6 319.15 161.4 326.6 158.05 332.5 156.65 333.65 156.45 334.7 156.25 334.75 156.25 334.85 156.25 335.15 139.55 335.05 122.3 335.05 122.25 335.05 122.1 340.95 122.1 346.85 122.05
L 346.85 122.1
Q 348.05 122.05 349.25 122.05
L 349.25 122
Q 349.25 121.9 349.25 121.85 354 115.55 357.6 109.25
L 357.35 109.25 357.35 109.15
M 377.4 108.55
Q 376.8 108.55 376.3 108.55 376.2 108.55 376.1 108.55 375.55 108.55 374.95 108.55 374.9 108.55 374.85 108.55 374.25 108.55 373.7 108.55 373.6 108.55 373.55 108.55 372.95 108.55 372.4 108.55 372.35 108.55 372.2 108.55 371.7 108.55 371.1 108.55 371 108.55 370.95 108.5 368.5 107.3 365.95 106.3 365.4 106.4 365.15 106.65 364.25 107.5 363.45 108.65 356.6 117.8 353.15 130.4 353.2 130.8 353.15 131.2 353.15 131.25 353.15 131.4 353.05 131.4 353 131.4 353 132.5 353 133.6 353 133.7 353 133.75 353 134.4 353.05 135.1
L 353.15 135.1
Q 353.15 135.15 353.15 135.25 353.15 135.35 353.15 135.4 353.15 136.05 353.25 136.7
L 353.3 136.7
Q 355.9 150.2 366.35 155.85 371.6 158.7 378.2 160.15 386.7 152.5 392.5 142.3 393.9 139.75 394.25 136.2 394.5 135.85 394.35 135.1 394.35 135 394.35 134.95 394.35 134.8 394.35 134.75 394.35 134.7 394.35 134.6 394.7 134.25 394.6 133.45 394.6 133.35 394.6 133.3 394.6 133.25 394.6 133.15 394.7 132.4 394.35 132 394.45 130.6 394.25 129.4 391.6 115.95 382.75 108.7
L 382.75 108.65
Q 382.1 108.55 381.5 108.55 381.35 108.55 381.3 108.55 380.7 108.55 380.15 108.55 380.1 108.55 380 108.55 379.45 108.55 378.85 108.55 378.8 108.55 378.75 108.55 378.15 108.55 377.6 108.55 377.5 108.55 377.4 108.55
M 374.5 120.65
Q 374.55 120.65 374.65 120.65 382 126.95 383.7 138.95 383.7 139.05 383.7 139.15 383.7 140.15 383.7 141.2 383.7 141.3 383.7 141.4 383.7 141.9 383.7 142.5 383.7 142.55 383.7 142.7 383.7 143.15 383.55 143.3 381.4 144.7 378.05 143.7 365.65 140 362.4 127.2 362.4 127.05 362.4 126.95 362.35 126.4 362.4 125.85 362.4 125.8 362.4 125.65 362.4 124.35 362.4 122.95 362.4 122.85 362.4 122.75 362.4 122.3 362.4 121.85 362.7 121.5 362.7 120.85 362.7 120.8 362.7 120.65 368.6 120.65 374.5 120.65
M 401.05 119.8
L 401.05 119.9
Q 401.05 120.85 401.05 121.85 401.05 121.9 401.05 122 401.05 122.5 401.05 123.1 401.05 123.15 401.05 123.3 401.05 123.85 401.05 124.4 401.05 124.45 401.05 124.55 401.05 125.2 401.05 125.85 401.05 125.95 401.05 126 401.05 126.6 401.05 127.2 401.05 127.25 401.05 127.3 401.05 127.95 401.05 128.65 401.05 128.7 401.05 128.75 401.05 129.35 401.05 129.9 401.05 130 401.05 130.05 401.05 130.6 401.05 131.2 401.05 131.25 401.05 131.4 401.05 132 401.05 132.65 401.05 132.7 401.05 132.85 401.05 133.35 401.05 133.95 401.05 134 401.05 134.1 401.05 134.75 401.05 135.4 401.05 135.45 401.05 135.55 400.95 135.55 400.9 135.55 400.9 136.1 400.9 136.7 400.9 136.8 400.9 136.85 400.9 137.45 400.9 137.95 400.9 138.1 400.9 138.2 400.9 138.8 400.9 139.4 400.9 139.55 400.9 139.6 400.9 140.15 400.9 140.75 400.9 140.8 400.9 140.9 400.9 141.45 400.9 142.05 400.9 142.1 400.9 142.15 400.9 142.85 400.9 143.5 400.9 143.55 400.9 143.65 400.9 144.25 400.9 144.8 400.9 144.9 400.9 144.95 400.9 145.6 400.9 146.25 400.9 146.35 400.9 146.4 400.9 147 400.9 147.5 400.9 147.65 400.9 147.7 400.9 148.25 400.9 148.85 400.9 148.9 400.9 148.95 400.9 149.6 400.9 150.3 400.9 150.35 400.9 150.45 400.9 151 400.9 151.6 400.9 151.65 400.9 151.7 400.9 152.3 400.9 152.85 400.9 152.95 400.9 153.05 400.9 153.7 400.9 154.35 400.9 154.4 400.9 154.5 400.9 155.1 400.9 155.6 400.9 155.65 400.9 155.8 400.9 156.45 400.95 157.05
L 401.05 157.05
Q 407.75 157.4 414.75 157.2
L 414.75 157.05
Q 414.75 157 414.75 156.9 414.75 141.05 414.75 125.2 414.75 125.15 414.75 125.1 416.9 122.85 418.95 120.65 419 120.6 419 120.5 423.55 120.5 428 120.6 428.35 120.6 428.75 120.6
L 428.75 120.65
Q 428.6 120.65 428.6 120.75 426.75 122.65 424.85 124.4 424.85 124.45 424.85 124.55 424.7 124.55 424.65 124.55 424.65 139.6 424.7 154.65
L 424.85 154.65
Q 429.35 157.9 433.7 161.25 433.8 161.25 433.85 161.25 438.9 156.65 443.45 151.6
L 443.6 151.6
Q 441.1 149.6 438.45 147.75 438.4 147.75 438.4 147.7 438.4 147.65 438.4 147.5 438.4 135.65 438.4 123.75 438.4 123.7 438.4 123.6 438.4 122.65 438.4 121.65 440.3 114.3 444.35 109 444.4 108.95 444.4 108.9
L 444.4 108.8
Q 443.85 108.8 443.35 108.8 435.9 108.3 427.75 108.55 427.65 108.55 427.6 108.5 426.75 107.5 425.3 107.1 425.25 107.1 425.15 107.1 419.45 111.85 415 117.8 415 117.85 415 117.95
L 414.85 117.95
Q 414.85 117.85 414.9 117.7 414.9 115.2 414.65 113.1 414.65 113.05 414.6 112.95 410.35 110.15 406.35 107.1 406.3 107.1 406.25 107.1 401.3 111.9 396.05 116.45 398.4 118.25 401.05 119.8
M 489.6 109.55
Q 489.5 109.55 489.4 109.55 482.6 109.55 475.85 109.55 475.85 109.6 475.85 109.65 475.85 125.8 475.85 141.85 475.85 142.05 475.85 142.15
L 475.85 142.5
Q 475.85 142.55 475.85 142.7 475.85 142.75 475.75 142.85 474.35 144.75 472.95 146.7 472.8 146.7 472.75 146.7 468.1 146.85 463.85 146.6 463.85 146.45 463.85 146.4 465.45 144.9 466.85 143.05
L 467 143.05
Q 467.2 128.3 466.95 114.1 466.95 113.95 466.9 113.95 462.35 110.45 457.9 106.9 457.9 107.05 457.8 107.05 453.65 111.05 449.45 115.05 449.05 115.45 448.65 115.85 449.05 116.3 449.45 116.8 451.15 118.65 453.1 120.35
L 453.2 120.35
Q 453.2 133 453.2 145.75 453.2 145.85 453.2 145.95 453.2 146.45 453.2 147.05 453.2 147.1 453.2 147.2 453.1 147.2 453 147.2 453 147.75 453 148.35 453 148.45 453 148.5 453 148.55 453 148.7 452.4 153.9 449.45 156.75 448.9 157.25 448.35 157.7 448.9 157.7 449.45 157.75 460.1 158 471.15 157.9 471.25 157.9 471.3 157.9 473.5 153.95 475.65 150.05 475.65 150 475.65 149.95 476 151.7 475.9 153.8
L 476 153.8
Q 480.25 157.1 484.65 160.2 484.7 160.2 484.7 160.35 489.45 155.65 494.2 151.05 494.25 151 494.25 150.95 492.15 149 489.8 147.3 489.75 147.3 489.75 147.2 489.75 144.35 489.75 141.55 489.85 125.35 489.6 109.55
M 549.6 110.45
Q 549.699609375 110.418359375 549.8 110.35
L 549.85 110.35
Q 549.95 110.25 550 110.15 549.8001953125 110.15 549.6 110.15 547.601953125 110.15 545.6 110.15 537.33125 110.160546875 529 110.2
L 529 110.25
Q 527.55 112.7 526.35 115.45
L 526.3 115.45
Q 518.45 111.9 510.75 108.25 510.7 108.25 510.65 108.25 501.25 109.85 499.5 119.15 499.5 119.2 499.5 119.3 499.25 119.6 499.45 120.35
L 499.5 120.35
Q 499.45 121.05 499.75 121.6 503.3 129.75 513.25 131.6 507.1 137.2 502.55 144.55 501 147.1 497.5 147.85 497.1 147.85 496.7 147.85 496.65 147.85 496.55 147.85 495.65 147.65 495.45 148.05 495.45 148.1 495.55 148.15 498.4 154.35 501.3 160.6 503.55 160.55 505.25 159.95 514.1 157 515.9 147.1 517.55 138.35 524.75 135.25 524.75 135.35 524.8 135.35 526.95 142.9 531.95 147.6 531.95 147.65 531.95 147.7 525.5 147.7 519.3 147.95 518.7 147.95 518.15 147.95
L 518.15 148.05
Q 518.15 148.1 518.15 148.15 521.45 152.95 524.65 157.9
L 524.65 158
Q 535.224609375 158.0892578125 545.6 157.95 546.8515625 157.921484375 548.1 157.9 546.794140625 156.8984375 545.6 155.75 540.7134765625 151.219140625 537.7 144.75 536.35 141.85 535.9 138.1 535.9 138.05 535.9 137.95 535.9 137.6 535.9 137.2 535.85 137.2 535.75 137.2 535.75 137.1 535.75 137.05 535.75 136.95 535.75 136.9 535.75 136.5 535.75 136.05
L 535.65 136.05 535.65 136
Q 535.65 135.55 535.65 135.15 535.65 135.1 535.65 135 535.65 134.3 535.65 133.6 535.65 133.55 535.65 133.5 535.65 133.1 535.65 132.75
L 535.75 132.75
Q 535.75 132.3 535.75 131.85 536.25 126.3 538.4 122.6 541.3705078125 117.5126953125 545.6 113.65 547.476171875 111.951953125 549.6 110.45
M 512.1 123.05
Q 512.1 122.95 512.1 122.9
L 512.1 122.85
Q 512.1 122.3 512.1 121.75
L 512.1 121.65
Q 513.25 117.15 518.15 116.4
L 518.2 116.45
Q 521.5 117.95 524.85 119.35 524.2 121.9 523.65 124.7 523.65 124.75 523.65 124.8 523.5 125.1 523.55 125.65 523.55 125.7 523.55 125.8 523.55 125.95 523.55 126.1 523.55 126.2 523.55 126.25 523.35 126.55 523.4 127.1 523.5 127.1 523.5 127.2 523.4 127.85 523.5 128.5 523.5 128.55 523.5 128.65 523.5 128.7 523.4 128.75 523.35 129.3 523.55 129.55 515.6 129.5 512.1 123.05 Z"/>

<path fill="#818E46" stroke="none" d="
M 85.75 14.6
L 82.15 21.15 78.4 14.6 36.85 14.6 35.1 17.35
Q 32.05 21.55 28.1 24.85 24 28.3 18.3 30.8
L 18.55 30.8 14.7 32.4 14.7 149.05 18.3 150.6 18.55 150.6
Q 24.1 153.3 28.1 156.5 32.15 159.85 35.1 164.1
L 36.85 166.85 96.75 166.85 98.55 164.1
Q 101.35 159.85 105.5 156.5 109.4 153.3 115.1 150.6
L 118.85 149 118.85 32.4 115.1 30.8
Q 109.5 28.2 105.45 24.85
L 105.5 24.85
Q 101.45 21.55 98.55 17.35
L 98.55 17.3 98.45 17.3 96.85 14.6 85.75 14.6
M 106.8 56.45
Q 109.1 58.5 110.9 60.6 115.2 65.65 116.95 71.65 117.35 73 117.65 74.4 119.05 81.75 116.95 88.55 116.5 90.05 115.85 91.65 113.85 96.2 110.95 99.15 109 101.25 106.55 102.5 102.05 104.8 97.95 103.1 97.3 102.8 96.7 102.5 95.9 101.95 95.05 101.3 93.8 100.3 92.75 99.15 87.8 93.8 88.25 87.05 88.4 84.85 89 83.15 89.25 81.45 90.3 80.05 90.45 79.85 90.5 79.8 92.35 77.45 94.9 77.45 97.3 77.45 99.25 79.8 100.95 82.15 101.05 85.4 100.95 88.8 99.25 91 97.4 93.4 94.9 93.4 92.3 93.4 90.5 91 90.25 90.7 90.05 90.4 90.8 93.1 92.75 95.25 94.15 96.9 96 98.2 97 98.8 97.95 99.2 98.1 99.3 98.2 99.35 101.45 100.4 104.85 98.85 108.65 96.9 110.95 92.3 111.15 91.7 111.45 91.25 114.05 85.65 113.05 79.8 112.6 76.3 110.95 73.3 110.3 72.3 109.65 71.25 108.4 69.65 106.8 68.3 102.55 64.45 97.95 66.8 95.45 67.95 92.75 71.1 92.75 71.2 92.65 71.25 92.5 71.5 92.35 71.75 89.5 75.3 84.85 84.25 84.6 84.8 79.25 94.65
L 76.95 99
Q 77.85 100.65 80.55 105 83.35 109.45 84.2 110.6 85.95 113.15 87.35 114.65 92.15 119.15 96 122.2 101.75 126.95 104.85 128.65 104.3 129.25 103.8 130 93.35 145.6 84.25 143.5 79.8 142.45 74.95 136.5 72.2 133.1 69.3 128
L 65.05 120.5 61.95 126.1
Q 61.85 126.2 60.9 128.35 56.65 136.8 52 140.5 50.15 141.9 48.25 142.7 39.6 146.05 27.4 135.25 25.1 133.3 23.4 131.2 19 126.1 17.2 120.05 16.8 118.75 16.55 117.3 15.1 110 17.2 103.15 17.7 101.65 18.4 100.15 20.35 95.5 23.35 92.55 25.25 90.55 27.65 89.3 32.15 86.95 36.3 88.6 36.85 88.9 37.55 89.2 38.35 89.75 39.2 90.3 40.45 91.45 41.5 92.55 46.4 97.95 45.95 104.65 45.7 108.3 44.4 110.85 43.8 112.25 42.8 113.5 39.95 117.15 35.95 117.15 31.8 117.15 29.05 113.5 26.2 109.75 26.2 104.4 26.2 99.2 29.05 95.5 31.1 92.7 33.85 91.95 31.75 91.75 29.4 92.9 25.6 94.8 23.35 99.45 23.05 100 22.8 100.55 20.15 106.05 21.1 111.9 21.6 115.45 23.35 118.4 23.85 119.5 24.65 120.45 25.85 122.05 27.4 123.45 31.75 127.25 36.3 125 38.8 123.75 41.5 120.6 41.5 120.5 41.5 120.45 41.75 120.25 41.95 120 44.8 116.45 49.3 107.5
L 50.75 104.6
Q 50.75 104.55 53.6 99.7
L 52.85 98.45
Q 47.2 87.8 45.75 84.95 43.85 81.3 42.35 78.2 41.8 77.3 41.45 76.45 39.1 71.95 38 70.25 38.45 68.8 39.8 66.25
L 42.6 61
Q 46.9 52.95 51.35 47.7
L 60.15 68 64.9 76.45 65.7 77.8
Q 66.6 75.95 67.65 74.15 71.25 67.65 74.9 61.5 80.25 52.9 82.2 51.25 84.05 49.8 85.9 49.1 94.65 45.7 106.8 56.45
M 37 20.15
Q 37.4 20.15 37.4 20.6
L 38.5 34.8 37.4 49
Q 37.4 49.4 37 49.4
L 36.55 49 35.45 34.8 36.55 20.6
Q 36.55 20.15 37 20.15
M 22.75 34.65
L 23.85 46.7 23.05 74.6
Q 23.05 75.05 22.65 75.05
L 22.2 74.6 20.75 49.85 21.9 34.65 22.25 34.25 22.75 34.65
M 20.15 139.3
L 19.25 147.2
Q 19.25 147.35 18.9 147.35
L 18.55 147.2 17.6 139.3 18.55 131.45
Q 18.55 131.2 18.9 131.2 19.25 131.2 19.25 131.45
L 20.15 139.3
M 38.5 145.35
Q 38.85 145.35 38.85 145.6
L 39.8 153.4 38.85 161.3
Q 38.85 161.55 38.5 161.55
L 38.1 161.3 37.2 153.4 38.1 145.6
Q 38.1 145.35 38.5 145.35
M 112.7 118.55
L 113.05 118.1
Q 113.45 118.1 113.45 118.55
L 114.65 132.7 113.45 146.9
Q 113.45 147.35 113.05 147.35
L 112.7 146.9 111.6 138.35 111.55 129.35 112.7 118.55
M 57.95 108.4
L 55.55 103.55 49.85 114
Q 48 117.7 46.35 120.45 43.45 125.25 41.5 127.55 40.2 129.1 39.25 129.55
L 41.55 130.35
Q 44.15 131 45.5 130 46.1 129.65 46.95 128.35 48.25 126.3 50.5 122.2 50.95 121.35 51.45 120.45
L 57.95 108.4
M 55.25 63.75
L 53.6 66
Q 51.95 68.3 51.95 69.2 52.7 70.25 54.95 74.6 55.05 74.8 55.9 76.45 56.8 78.1 58.45 81.15
L 60.7 85.05
Q 61.55 86.3 66.7 95.85 71.7 105.25 72.4 106.9
L 77.45 115.65
Q 80.9 121.3 83 124.2 84.45 126.3 85.2 126.8 86.7 127.55 89.1 126.25
L 91.35 124.8
Q 90.35 124.45 88.85 122.95 86.1 120.05 81.55 113.05
L 80 110.7
Q 77.45 106.65 74.85 101.95
L 62.85 80.3
Q 62.1 78.95 61.55 77.9 61.25 77.1 60.9 76.45 58.85 72.7 58.85 72.6 58.25 71.3 57.35 69.35 56.05 66.15 55.25 63.75
M 83.75 69.5
Q 83.25 70.4 82.8 71.25 82 72.7 76.2 83.5 75.2 85.45 72.25 90.25
L 74.1 93.65
Q 74.2 93.6 74.45 93.9
L 74.6 94.15
Q 79.45 86.6 80.1 85.4 83.9 78.5 84.4 77.7 86.25 74.1 87.95 71.25 90.8 66.5 92.75 64.05 94.05 62.7 95.05 62.2
L 92.6 61.35
Q 90.05 60.8 88.65 61.65 88.15 62.05 87.3 63.4 85.9 65.4 83.75 69.5 Z"/>

<path fill="#6F7B37" stroke="none" d="
M 113.05 118.1
L 112.7 118.55 111.55 129.35 111.6 138.35 112.7 146.9 113.05 147.35
Q 113.45 147.35 113.45 146.9
L 114.65 132.7 113.45 118.55
Q 113.45 118.1 113.05 118.1
M 38.85 145.6
Q 38.85 145.35 38.5 145.35 38.1 145.35 38.1 145.6
L 37.2 153.4 38.1 161.3 38.5 161.55
Q 38.85 161.55 38.85 161.3
L 39.8 153.4 38.85 145.6
M 19.25 147.2
L 20.15 139.3 19.25 131.45
Q 19.25 131.2 18.9 131.2 18.55 131.2 18.55 131.45
L 17.6 139.3 18.55 147.2 18.9 147.35
Q 19.25 147.35 19.25 147.2
M 23.85 46.7
L 22.75 34.65 22.25 34.25 21.9 34.65 20.75 49.85 22.2 74.6 22.65 75.05
Q 23.05 75.05 23.05 74.6
L 23.85 46.7
M 37.4 20.6
Q 37.4 20.15 37 20.15 36.55 20.15 36.55 20.6
L 35.45 34.8 36.55 49 37 49.4
Q 37.4 49.4 37.4 49
L 38.5 34.8 37.4 20.6 Z"/>

<path fill="#424C17" stroke="none" d="
M 86 14.2
L 85.75 14.6 96.85 14.6 98.45 17.3 98.55 17.3 98.55 17.35
Q 101.45 21.55 105.5 24.85
L 105.45 24.85
Q 109.5 28.2 115.1 30.8
L 118.85 32.4 118.85 149 115.1 150.6
Q 109.4 153.3 105.5 156.5 101.35 159.85 98.55 164.1
L 96.75 166.85 36.85 166.85 35.1 164.1
Q 32.15 159.85 28.1 156.5 24.1 153.3 18.55 150.6
L 18.3 150.6 14.7 149.05 14.7 32.4 18.55 30.8 18.3 30.8
Q 24 28.3 28.1 24.85 32.05 21.55 35.1 17.35
L 36.85 14.6 78.4 14.6 76.75 11.6 35 11.6 34.6 12.5 32.75 15.65
Q 29.95 19.55 26.2 22.55
L 26.15 22.55
Q 22.35 25.8 17.2 28.05
L 11.75 30.25 11.75 151.15 17.2 153.25
Q 22.6 155.85 26.2 158.8 30.05 162.05 32.75 165.8
L 32.75 165.75 34.6 168.9 35 169.8 98.55 169.8 100.95 165.75 100.95 165.8
Q 103.55 162.1 107.4 158.8 111.15 155.8 116.4 153.25 118.9 152.05 120.75 151.45
L 121.85 151.2 121.85 30.25 120.75 29.85
Q 118.9 29.25 116.4 28.05 111.2 25.8 107.4 22.55 103.6 19.45 100.95 15.65
L 98.45 11.6 87.55 11.05 86 14.2 Z"/>

<path fill="#866D9E" stroke="none" d="
M 106.9 11.35
Q 103.95 8 102.65 5.25
L 91.15 5 87.55 11.05 98.45 11.6 100.95 15.65
Q 103.6 19.45 107.4 22.55 111.2 25.8 116.4 28.05 118.9 29.25 120.75 29.85
L 121.85 30.25 121.85 151.2 120.75 151.45
Q 118.9 152.05 116.4 153.25 111.15 155.8 107.4 158.8 103.55 162.1 100.95 165.8
L 100.95 165.75 98.55 169.8 35 169.8 34.6 168.9 32.75 165.75 32.75 165.8
Q 30.05 162.05 26.2 158.8 22.6 155.85 17.2 153.25
L 11.75 151.15 11.75 30.25 17.2 28.05
Q 22.35 25.8 26.15 22.55
L 26.2 22.55
Q 29.95 19.55 32.75 15.65
L 34.6 12.5 35 11.6 76.75 11.6 73.1 5.2 71.8 5.2 31.15 5.7
Q 29.5 7.9375 27.85 10.15 27.3 10.8375 26.75 11.45 26.0353515625 12.23984375 25.25 12.95 22.9125 15.0625 20.55 17.15 17.5 19.175 14.45 21.2 13.3552734375 21.803515625 12.2 22.35 8.7 24.1 4.7 25.6
L 4.7 155.85
Q 5.05 156 5.45 156.15
L 11.65 158.75
Q 11.95 158.9 12.15 159 12.5 159.15 12.8 159.35
L 19.6 163.6
Q 20.1 163.95 20.55 164.25 20.9 164.55 21.25 164.85
L 25.75 168.95
Q 26.3 169.45 26.8 170
L 31.15 175.75 102.45 175.8 106.85 170
Q 109.7 166.85 113.05 164.35 116.75 161.4 121.4 159.05 124.95 157.3 128.9 155.95
L 128.85 25.5
Q 125.4 24.45 121.4 22.35 116.6 19.9 113.05 17.15 109.6 14.4 106.9 11.35 Z"/>

<path fill="#836A9C" stroke="none" d="
M 179.15 80.65
L 163.2 94.45 181.9 89.3
Q 182.3 89.85 183 92.5 183.7 95.05 183.8 95.2
L 199.15 91.35 199.25 109.55
Q 199.15 109.55 199 115.25 201.1 114.65 203 114.1 214.95 110.65 219.2 109.4 221.55 108.7 221.5 108.65 213.55 92.1 205.05 76 204.85 76 204.7 76.1 196.45 82.95 187.6 89.25 187.6 89 187.5 88.8 185.45 82.6 182.85 76.95 182.6 76.95 182.5 77.05 180.85 78.9 179.15 80.65 Z"/>
</g>
</defs>

<g id="_____1">
<g transform="matrix( 1, 0, 0, 1, 0,0) ">
<use xlink:href="#Layer1_0_FILL"/>
</g>
</g>

<g id="Layer_1"/>
</svg>
